<mxfile host="app.diagrams.net" modified="2021-11-08T15:58:39.056Z" agent="5.0 (X11)" etag="NEJYMgqcG1SuleTZEeAL" version="15.7.0" type="github">
  <diagram id="nVK3pabWiWZjwWu53Wz_" name="Page-1">
    <mxGraphModel dx="2272" dy="1854" grid="1" gridSize="10" guides="1" tooltips="1" connect="1" arrows="1" fold="1" page="1" pageScale="1" pageWidth="850" pageHeight="1100" math="0" shadow="0">
      <root>
        <mxCell id="0" />
        <mxCell id="1" parent="0" />
        <object label="" placeholders="1" class_name="LookupBlock" id="8vYfKD7r18sQojz9sVD8-1">
          <mxCell style="rounded=0;whiteSpace=wrap;html=1;fillColor=#fff2cc;strokeColor=#d6b656;container=0;connectable=0;allowArrows=0;treeFolding=0;moveCells=0;treeMoving=0;comic=0;rotatable=0;expand=1;autosize=1;resizeWidth=1;resizeHeight=1;metaEdit=1;" vertex="1" parent="1">
            <mxGeometry x="-720" y="40" width="1290" height="750" as="geometry">
              <mxRectangle x="40" y="400" width="50" height="40" as="alternateBounds" />
            </mxGeometry>
          </mxCell>
        </object>
        <object label="lookup" placeholders="1" id="8vYfKD7r18sQojz9sVD8-2">
          <mxCell style="rounded=0;whiteSpace=wrap;html=1;fillColor=#ffffff;fontSize=18;connectable=0;allowArrows=0;rotatable=0;cloneable=0;deletable=0;" vertex="1" parent="8vYfKD7r18sQojz9sVD8-1">
            <mxGeometry x="16.973684210526315" y="27.777777777777775" width="1256.052631578947" height="55.55555555555555" as="geometry" />
          </mxCell>
        </object>
        <mxCell id="8vYfKD7r18sQojz9sVD8-3" value="" style="rounded=0;whiteSpace=wrap;html=1;fillColor=#ffffff;connectable=0;allowArrows=0;container=1;collapsible=0;portConstraintRotation=0;rotatable=0;cloneable=0;deletable=0;recursiveResize=0;" vertex="1" parent="8vYfKD7r18sQojz9sVD8-1">
          <mxGeometry x="16.973684210526315" y="97.22222222222221" width="1256.052631578947" height="638.8888888888888" as="geometry">
            <mxRectangle x="10" y="70" width="50" height="40" as="alternateBounds" />
          </mxGeometry>
        </mxCell>
        <object label="%value%" placeholders="1" value="200" block_name="" class_name="ConstantBlock" id="8vYfKD7r18sQojz9sVD8-4">
          <mxCell style="ellipse;whiteSpace=wrap;html=1;comic=0;fillColor=#ffffff;fontSize=24;align=center;allowArrows=0;connectable=0;container=1;collapsible=0;recursiveResize=1;direction=west;resizable=0;metaEdit=1;" vertex="1" parent="8vYfKD7r18sQojz9sVD8-3">
            <mxGeometry x="-0.0015789473684435507" y="159.99555555555554" width="80" height="80" as="geometry" />
          </mxCell>
        </object>
        <object label="%name%" placeholders="1" name="OUT1" class_name="OutputPortBlock" id="8vYfKD7r18sQojz9sVD8-5">
          <mxCell style="triangle;fillColor=#ffffff;fontSize=14;points=[[1,0.5]];allowArrows=0;verticalAlign=middle;horizontal=1;spacingTop=0;align=left;spacingLeft=4;spacingRight=0;html=1;comic=0;treeFolding=0;treeMoving=0;movable=1;resizable=0;rotatable=1;deletable=1;editable=1;connectable=1;movableLabel=1;spacing=2;aspect=fixed;metaEdit=1;" vertex="1" parent="8vYfKD7r18sQojz9sVD8-4">
            <mxGeometry x="70" y="32.5" width="10" height="15" as="geometry">
              <mxPoint x="6" y="-7" as="offset" />
            </mxGeometry>
          </mxCell>
        </object>
        <object label="%value%" placeholders="1" value="170" block_name="" class_name="ConstantBlock" id="8vYfKD7r18sQojz9sVD8-6">
          <mxCell style="ellipse;whiteSpace=wrap;html=1;comic=0;fillColor=#ffffff;fontSize=24;align=center;allowArrows=0;connectable=0;container=1;collapsible=0;recursiveResize=1;direction=west;resizable=0;metaEdit=1;" vertex="1" parent="8vYfKD7r18sQojz9sVD8-3">
            <mxGeometry x="-0.003684210526329501" y="79.99777777777777" width="80" height="80" as="geometry" />
          </mxCell>
        </object>
        <object label="%name%" placeholders="1" name="OUT1" class_name="OutputPortBlock" id="8vYfKD7r18sQojz9sVD8-7">
          <mxCell style="triangle;fillColor=#ffffff;fontSize=14;points=[[1,0.5]];allowArrows=0;verticalAlign=middle;horizontal=1;spacingTop=0;align=left;spacingLeft=4;spacingRight=0;html=1;comic=0;treeFolding=0;treeMoving=0;movable=1;resizable=0;rotatable=1;deletable=1;editable=1;connectable=1;movableLabel=1;spacing=2;aspect=fixed;metaEdit=1;" vertex="1" parent="8vYfKD7r18sQojz9sVD8-6">
            <mxGeometry x="70" y="32.5" width="10" height="15" as="geometry">
              <mxPoint x="6" y="-7" as="offset" />
            </mxGeometry>
          </mxCell>
        </object>
        <object label="%value%" placeholders="1" value="10" block_name="" class_name="ConstantBlock" id="8vYfKD7r18sQojz9sVD8-8">
          <mxCell style="ellipse;whiteSpace=wrap;html=1;comic=0;fillColor=#ffffff;fontSize=24;align=center;allowArrows=0;connectable=0;container=1;collapsible=0;recursiveResize=1;direction=west;resizable=0;metaEdit=1;" vertex="1" parent="8vYfKD7r18sQojz9sVD8-3">
            <mxGeometry x="-0.0036842105263019675" y="-0.002222222222229675" width="80" height="80" as="geometry" />
          </mxCell>
        </object>
        <object label="%name%" placeholders="1" name="OUT1" class_name="OutputPortBlock" id="8vYfKD7r18sQojz9sVD8-9">
          <mxCell style="triangle;fillColor=#ffffff;fontSize=14;points=[[1,0.5]];allowArrows=0;verticalAlign=middle;horizontal=1;spacingTop=0;align=left;spacingLeft=4;spacingRight=0;html=1;comic=0;treeFolding=0;treeMoving=0;movable=1;resizable=0;rotatable=1;deletable=1;editable=1;connectable=1;movableLabel=1;spacing=2;aspect=fixed;metaEdit=1;" vertex="1" parent="8vYfKD7r18sQojz9sVD8-8">
            <mxGeometry x="70" y="32.5" width="10" height="15" as="geometry">
              <mxPoint x="6" y="-7" as="offset" />
            </mxGeometry>
          </mxCell>
        </object>
        <object label=" %symbol%" class_name="TimeBlock" block_name="" placeholders="1" symbol="&amp;#128336;" id="8vYfKD7r18sQojz9sVD8-10">
          <mxCell style="whiteSpace=wrap;html=1;aspect=fixed;connectable=0;allowArrows=0;container=1;collapsible=0;resizable=0;fontSize=45;metaEdit=1;" vertex="1" parent="8vYfKD7r18sQojz9sVD8-3">
            <mxGeometry x="-0.0036842105263019675" y="319.99777777777774" width="80" height="80" as="geometry" />
          </mxCell>
        </object>
        <object label="%name%" placeholders="1" name="OUT1" class_name="OutputPortBlock" id="8vYfKD7r18sQojz9sVD8-11">
          <mxCell style="triangle;fillColor=#ffffff;fontSize=14;points=[[1,0.5]];allowArrows=0;verticalAlign=middle;horizontal=1;spacingTop=0;align=left;spacingLeft=4;spacingRight=0;html=1;comic=0;treeFolding=0;treeMoving=0;movable=1;resizable=0;rotatable=1;deletable=1;editable=1;connectable=1;movableLabel=1;spacing=2;aspect=fixed;metaEdit=1;" vertex="1" parent="8vYfKD7r18sQojz9sVD8-10">
            <mxGeometry x="70" y="33" width="10" height="15" as="geometry">
              <mxPoint x="5" y="-7" as="offset" />
            </mxGeometry>
          </mxCell>
        </object>
        <object label="%value%" placeholders="1" value="260" block_name="" class_name="ConstantBlock" id="8vYfKD7r18sQojz9sVD8-12">
          <mxCell style="ellipse;whiteSpace=wrap;html=1;comic=0;fillColor=#ffffff;fontSize=24;align=center;allowArrows=0;connectable=0;container=1;collapsible=0;recursiveResize=1;direction=west;resizable=0;metaEdit=1;" vertex="1" parent="8vYfKD7r18sQojz9sVD8-3">
            <mxGeometry x="-0.0015789473684435507" y="239.99555555555554" width="80" height="80" as="geometry" />
          </mxCell>
        </object>
        <object label="%name%" placeholders="1" name="OUT1" class_name="OutputPortBlock" id="8vYfKD7r18sQojz9sVD8-13">
          <mxCell style="triangle;fillColor=#ffffff;fontSize=14;points=[[1,0.5]];allowArrows=0;verticalAlign=middle;horizontal=1;spacingTop=0;align=left;spacingLeft=4;spacingRight=0;html=1;comic=0;treeFolding=0;treeMoving=0;movable=1;resizable=0;rotatable=1;deletable=1;editable=1;connectable=1;movableLabel=1;spacing=2;aspect=fixed;metaEdit=1;" vertex="1" parent="8vYfKD7r18sQojz9sVD8-12">
            <mxGeometry x="70" y="32.5" width="10" height="15" as="geometry">
              <mxPoint x="6" y="-7" as="offset" />
            </mxGeometry>
          </mxCell>
        </object>
        <object label="%symbol%" placeholders="1" symbol="&lt;" class_name="LessThanBlock" block_name="" id="8vYfKD7r18sQojz9sVD8-14">
          <mxCell style="whiteSpace=wrap;html=1;aspect=fixed;comic=0;fillColor=#FFFFFF;fontSize=36;align=center;resizable=0;container=1;collapsible=0;points=[];allowArrows=0;metaEdit=1;connectable=0;" vertex="1" parent="8vYfKD7r18sQojz9sVD8-3">
            <mxGeometry x="329.02631578947364" y="14.77777777777777" width="80" height="80" as="geometry" />
          </mxCell>
        </object>
        <object label="%name%" placeholders="1" name="OUT1" class_name="OutputPortBlock" id="8vYfKD7r18sQojz9sVD8-15">
          <mxCell style="triangle;fillColor=#ffffff;fontSize=14;points=[[1,0.5]];allowArrows=0;verticalAlign=middle;horizontal=1;spacingTop=0;align=left;spacingLeft=4;spacingRight=0;html=1;comic=0;treeFolding=0;treeMoving=0;movable=1;resizable=0;rotatable=1;deletable=1;editable=1;connectable=1;movableLabel=1;spacing=2;aspect=fixed;metaEdit=1;" vertex="1" parent="8vYfKD7r18sQojz9sVD8-14">
            <mxGeometry x="70" y="32.5" width="10" height="15" as="geometry">
              <mxPoint x="5" y="-7" as="offset" />
            </mxGeometry>
          </mxCell>
        </object>
        <object label="%name%" placeholders="1" name="IN1" class_name="InputPortBlock" id="8vYfKD7r18sQojz9sVD8-16">
          <mxCell style="triangle;fontSize=14;points=[[0,0.5]];allowArrows=0;verticalAlign=middle;horizontal=1;spacingTop=0;align=right;spacingLeft=0;spacingRight=8;html=1;comic=0;treeFolding=0;treeMoving=0;resizable=0;movableLabel=1;spacing=2;aspect=fixed;fillColor=#000000;metaEdit=1;" vertex="1" parent="8vYfKD7r18sQojz9sVD8-14">
            <mxGeometry y="17.5" width="10" height="15" as="geometry">
              <mxPoint x="-4" y="-8" as="offset" />
            </mxGeometry>
          </mxCell>
        </object>
        <object label="%name%" placeholders="1" name="IN2" class_name="InputPortBlock" id="8vYfKD7r18sQojz9sVD8-17">
          <mxCell style="triangle;fontSize=14;points=[[0,0.5]];allowArrows=0;verticalAlign=middle;horizontal=1;spacingTop=0;align=right;spacingLeft=0;spacingRight=8;html=1;comic=0;treeFolding=0;treeMoving=0;resizable=0;movableLabel=1;spacing=2;aspect=fixed;fillColor=#000000;metaEdit=1;" vertex="1" parent="8vYfKD7r18sQojz9sVD8-14">
            <mxGeometry y="47.5" width="10" height="15" as="geometry">
              <mxPoint x="-4" y="-8" as="offset" />
            </mxGeometry>
          </mxCell>
        </object>
        <object label="%symbol%" placeholders="1" symbol="&lt;" class_name="LessThanBlock" block_name="" id="8vYfKD7r18sQojz9sVD8-18">
          <mxCell style="whiteSpace=wrap;html=1;aspect=fixed;comic=0;fillColor=#FFFFFF;fontSize=36;align=center;resizable=0;container=1;collapsible=0;points=[];allowArrows=0;metaEdit=1;connectable=0;" vertex="1" parent="8vYfKD7r18sQojz9sVD8-3">
            <mxGeometry x="329.02631578947364" y="95.77777777777777" width="80" height="80" as="geometry" />
          </mxCell>
        </object>
        <object label="%name%" placeholders="1" name="OUT1" class_name="OutputPortBlock" id="8vYfKD7r18sQojz9sVD8-19">
          <mxCell style="triangle;fillColor=#ffffff;fontSize=14;points=[[1,0.5]];allowArrows=0;verticalAlign=middle;horizontal=1;spacingTop=0;align=left;spacingLeft=4;spacingRight=0;html=1;comic=0;treeFolding=0;treeMoving=0;movable=1;resizable=0;rotatable=1;deletable=1;editable=1;connectable=1;movableLabel=1;spacing=2;aspect=fixed;metaEdit=1;" vertex="1" parent="8vYfKD7r18sQojz9sVD8-18">
            <mxGeometry x="70" y="32.5" width="10" height="15" as="geometry">
              <mxPoint x="5" y="-7" as="offset" />
            </mxGeometry>
          </mxCell>
        </object>
        <object label="%name%" placeholders="1" name="IN1" class_name="InputPortBlock" id="8vYfKD7r18sQojz9sVD8-20">
          <mxCell style="triangle;fontSize=14;points=[[0,0.5]];allowArrows=0;verticalAlign=middle;horizontal=1;spacingTop=0;align=right;spacingLeft=0;spacingRight=8;html=1;comic=0;treeFolding=0;treeMoving=0;resizable=0;movableLabel=1;spacing=2;aspect=fixed;fillColor=#000000;metaEdit=1;" vertex="1" parent="8vYfKD7r18sQojz9sVD8-18">
            <mxGeometry y="17.5" width="10" height="15" as="geometry">
              <mxPoint x="-4" y="-8" as="offset" />
            </mxGeometry>
          </mxCell>
        </object>
        <object label="%name%" placeholders="1" name="IN2" class_name="InputPortBlock" id="8vYfKD7r18sQojz9sVD8-21">
          <mxCell style="triangle;fontSize=14;points=[[0,0.5]];allowArrows=0;verticalAlign=middle;horizontal=1;spacingTop=0;align=right;spacingLeft=0;spacingRight=8;html=1;comic=0;treeFolding=0;treeMoving=0;resizable=0;movableLabel=1;spacing=2;aspect=fixed;fillColor=#000000;metaEdit=1;" vertex="1" parent="8vYfKD7r18sQojz9sVD8-18">
            <mxGeometry y="47.5" width="10" height="15" as="geometry">
              <mxPoint x="-4" y="-8" as="offset" />
            </mxGeometry>
          </mxCell>
        </object>
        <object label="%symbol%" placeholders="1" symbol="&lt;" class_name="LessThanBlock" block_name="" id="8vYfKD7r18sQojz9sVD8-22">
          <mxCell style="whiteSpace=wrap;html=1;aspect=fixed;comic=0;fillColor=#FFFFFF;fontSize=36;align=center;resizable=0;container=1;collapsible=0;points=[];allowArrows=0;metaEdit=1;connectable=0;" vertex="1" parent="8vYfKD7r18sQojz9sVD8-3">
            <mxGeometry x="329.02631578947364" y="174.77777777777777" width="80" height="80" as="geometry" />
          </mxCell>
        </object>
        <object label="%name%" placeholders="1" name="OUT1" class_name="OutputPortBlock" id="8vYfKD7r18sQojz9sVD8-23">
          <mxCell style="triangle;fillColor=#ffffff;fontSize=14;points=[[1,0.5]];allowArrows=0;verticalAlign=middle;horizontal=1;spacingTop=0;align=left;spacingLeft=4;spacingRight=0;html=1;comic=0;treeFolding=0;treeMoving=0;movable=1;resizable=0;rotatable=1;deletable=1;editable=1;connectable=1;movableLabel=1;spacing=2;aspect=fixed;metaEdit=1;" vertex="1" parent="8vYfKD7r18sQojz9sVD8-22">
            <mxGeometry x="70" y="32.5" width="10" height="15" as="geometry">
              <mxPoint x="5" y="-7" as="offset" />
            </mxGeometry>
          </mxCell>
        </object>
        <object label="%name%" placeholders="1" name="IN1" class_name="InputPortBlock" id="8vYfKD7r18sQojz9sVD8-24">
          <mxCell style="triangle;fontSize=14;points=[[0,0.5]];allowArrows=0;verticalAlign=middle;horizontal=1;spacingTop=0;align=right;spacingLeft=0;spacingRight=8;html=1;comic=0;treeFolding=0;treeMoving=0;resizable=0;movableLabel=1;spacing=2;aspect=fixed;fillColor=#000000;metaEdit=1;" vertex="1" parent="8vYfKD7r18sQojz9sVD8-22">
            <mxGeometry y="17.5" width="10" height="15" as="geometry">
              <mxPoint x="-4" y="-8" as="offset" />
            </mxGeometry>
          </mxCell>
        </object>
        <object label="%name%" placeholders="1" name="IN2" class_name="InputPortBlock" id="8vYfKD7r18sQojz9sVD8-25">
          <mxCell style="triangle;fontSize=14;points=[[0,0.5]];allowArrows=0;verticalAlign=middle;horizontal=1;spacingTop=0;align=right;spacingLeft=0;spacingRight=8;html=1;comic=0;treeFolding=0;treeMoving=0;resizable=0;movableLabel=1;spacing=2;aspect=fixed;fillColor=#000000;metaEdit=1;" vertex="1" parent="8vYfKD7r18sQojz9sVD8-22">
            <mxGeometry y="47.5" width="10" height="15" as="geometry">
              <mxPoint x="-4" y="-8" as="offset" />
            </mxGeometry>
          </mxCell>
        </object>
        <object label="%symbol%" placeholders="1" symbol="&lt;" class_name="LessThanBlock" block_name="" id="8vYfKD7r18sQojz9sVD8-26">
          <mxCell style="whiteSpace=wrap;html=1;aspect=fixed;comic=0;fillColor=#FFFFFF;fontSize=36;align=center;resizable=0;container=1;collapsible=0;points=[];allowArrows=0;metaEdit=1;connectable=0;" vertex="1" parent="8vYfKD7r18sQojz9sVD8-3">
            <mxGeometry x="329.02631578947364" y="254.77777777777783" width="80" height="80" as="geometry" />
          </mxCell>
        </object>
        <object label="%name%" placeholders="1" name="OUT1" class_name="OutputPortBlock" id="8vYfKD7r18sQojz9sVD8-27">
          <mxCell style="triangle;fillColor=#ffffff;fontSize=14;points=[[1,0.5]];allowArrows=0;verticalAlign=middle;horizontal=1;spacingTop=0;align=left;spacingLeft=4;spacingRight=0;html=1;comic=0;treeFolding=0;treeMoving=0;movable=1;resizable=0;rotatable=1;deletable=1;editable=1;connectable=1;movableLabel=1;spacing=2;aspect=fixed;metaEdit=1;" vertex="1" parent="8vYfKD7r18sQojz9sVD8-26">
            <mxGeometry x="70" y="32.5" width="10" height="15" as="geometry">
              <mxPoint x="5" y="-7" as="offset" />
            </mxGeometry>
          </mxCell>
        </object>
        <object label="%name%" placeholders="1" name="IN1" class_name="InputPortBlock" id="8vYfKD7r18sQojz9sVD8-28">
          <mxCell style="triangle;fontSize=14;points=[[0,0.5]];allowArrows=0;verticalAlign=middle;horizontal=1;spacingTop=0;align=right;spacingLeft=0;spacingRight=8;html=1;comic=0;treeFolding=0;treeMoving=0;resizable=0;movableLabel=1;spacing=2;aspect=fixed;fillColor=#000000;metaEdit=1;" vertex="1" parent="8vYfKD7r18sQojz9sVD8-26">
            <mxGeometry y="17.5" width="10" height="15" as="geometry">
              <mxPoint x="-4" y="-8" as="offset" />
            </mxGeometry>
          </mxCell>
        </object>
        <object label="%name%" placeholders="1" name="IN2" class_name="InputPortBlock" id="8vYfKD7r18sQojz9sVD8-29">
          <mxCell style="triangle;fontSize=14;points=[[0,0.5]];allowArrows=0;verticalAlign=middle;horizontal=1;spacingTop=0;align=right;spacingLeft=0;spacingRight=8;html=1;comic=0;treeFolding=0;treeMoving=0;resizable=0;movableLabel=1;spacing=2;aspect=fixed;fillColor=#000000;metaEdit=1;" vertex="1" parent="8vYfKD7r18sQojz9sVD8-26">
            <mxGeometry y="47.5" width="10" height="15" as="geometry">
              <mxPoint x="-4" y="-8" as="offset" />
            </mxGeometry>
          </mxCell>
        </object>
        <mxCell id="8vYfKD7r18sQojz9sVD8-30" style="edgeStyle=orthogonalEdgeStyle;rounded=0;orthogonalLoop=1;jettySize=auto;html=1;exitX=1;exitY=0.5;exitDx=0;exitDy=0;entryX=0;entryY=0.5;entryDx=0;entryDy=0;" edge="1" parent="8vYfKD7r18sQojz9sVD8-3" source="8vYfKD7r18sQojz9sVD8-9" target="8vYfKD7r18sQojz9sVD8-16">
          <mxGeometry relative="1" as="geometry" />
        </mxCell>
        <mxCell id="8vYfKD7r18sQojz9sVD8-31" style="edgeStyle=orthogonalEdgeStyle;rounded=0;orthogonalLoop=1;jettySize=auto;html=1;exitX=1;exitY=0.5;exitDx=0;exitDy=0;entryX=0;entryY=0.5;entryDx=0;entryDy=0;" edge="1" parent="8vYfKD7r18sQojz9sVD8-3" source="8vYfKD7r18sQojz9sVD8-7" target="8vYfKD7r18sQojz9sVD8-20">
          <mxGeometry relative="1" as="geometry" />
        </mxCell>
        <mxCell id="8vYfKD7r18sQojz9sVD8-32" style="edgeStyle=orthogonalEdgeStyle;rounded=0;orthogonalLoop=1;jettySize=auto;html=1;exitX=1;exitY=0.5;exitDx=0;exitDy=0;entryX=0;entryY=0.5;entryDx=0;entryDy=0;" edge="1" parent="8vYfKD7r18sQojz9sVD8-3" source="8vYfKD7r18sQojz9sVD8-5" target="8vYfKD7r18sQojz9sVD8-24">
          <mxGeometry relative="1" as="geometry" />
        </mxCell>
        <mxCell id="8vYfKD7r18sQojz9sVD8-33" style="edgeStyle=orthogonalEdgeStyle;rounded=0;orthogonalLoop=1;jettySize=auto;html=1;exitX=1;exitY=0.5;exitDx=0;exitDy=0;entryX=0;entryY=0.5;entryDx=0;entryDy=0;" edge="1" parent="8vYfKD7r18sQojz9sVD8-3" source="8vYfKD7r18sQojz9sVD8-13" target="8vYfKD7r18sQojz9sVD8-28">
          <mxGeometry relative="1" as="geometry" />
        </mxCell>
        <object label="%symbol%" placeholders="1" symbol="MUX" class_name="MultiplexerBlock" block_name="" id="8vYfKD7r18sQojz9sVD8-34">
          <mxCell style="whiteSpace=wrap;html=1;aspect=fixed;comic=0;fillColor=#FFFFFF;fontSize=20;align=center;resizable=0;container=1;collapsible=0;points=[];allowArrows=0;metaEdit=1;connectable=0;rotation=-90;" vertex="1" parent="8vYfKD7r18sQojz9sVD8-3">
            <mxGeometry x="463.02631578947364" y="14.777777777777771" width="80" height="80" as="geometry" />
          </mxCell>
        </object>
        <object label="%name%" placeholders="1" name="OUT1" class_name="OutputPortBlock" id="8vYfKD7r18sQojz9sVD8-35">
          <mxCell style="triangle;fillColor=#ffffff;fontSize=14;points=[[1,0.5]];allowArrows=0;verticalAlign=middle;horizontal=1;spacingTop=0;align=left;spacingLeft=4;spacingRight=0;html=1;comic=0;treeFolding=0;treeMoving=0;movable=1;resizable=0;rotatable=1;deletable=1;editable=1;connectable=1;movableLabel=1;spacing=2;aspect=fixed;metaEdit=1;rotation=-90;" vertex="1" parent="8vYfKD7r18sQojz9sVD8-34">
            <mxGeometry x="35" y="-2" width="10" height="15" as="geometry">
              <mxPoint x="5" y="-7" as="offset" />
            </mxGeometry>
          </mxCell>
        </object>
        <object label="%name%" placeholders="1" name="IN1" class_name="InputPortBlock" id="8vYfKD7r18sQojz9sVD8-36">
          <mxCell style="triangle;fontSize=14;points=[[0,0.5]];allowArrows=0;verticalAlign=middle;horizontal=1;spacingTop=0;align=right;spacingLeft=0;spacingRight=8;html=1;comic=0;treeFolding=0;treeMoving=0;resizable=0;movableLabel=1;spacing=2;aspect=fixed;fillColor=#000000;metaEdit=1;rotation=-90;" vertex="1" parent="8vYfKD7r18sQojz9sVD8-34">
            <mxGeometry x="20" y="68" width="10" height="15" as="geometry">
              <mxPoint x="-4" y="-8" as="offset" />
            </mxGeometry>
          </mxCell>
        </object>
        <object label="%name%" placeholders="1" name="IN2" class_name="InputPortBlock" id="8vYfKD7r18sQojz9sVD8-37">
          <mxCell style="triangle;fontSize=14;points=[[0,0.5]];allowArrows=0;verticalAlign=middle;horizontal=1;spacingTop=0;align=right;spacingLeft=0;spacingRight=8;html=1;comic=0;treeFolding=0;treeMoving=0;resizable=0;movableLabel=1;spacing=2;aspect=fixed;fillColor=#000000;metaEdit=1;rotation=-90;" vertex="1" parent="8vYfKD7r18sQojz9sVD8-34">
            <mxGeometry x="50" y="67" width="10" height="15" as="geometry">
              <mxPoint x="-4" y="-8" as="offset" />
            </mxGeometry>
          </mxCell>
        </object>
        <object label="%name%" placeholders="1" name="select" class_name="InputPortBlock" id="8vYfKD7r18sQojz9sVD8-38">
          <mxCell style="triangle;fontSize=14;points=[[0,0.5]];allowArrows=0;verticalAlign=middle;horizontal=1;spacingTop=0;align=left;spacingLeft=2;spacingRight=0;html=1;comic=0;treeFolding=0;treeMoving=0;resizable=0;movableLabel=1;spacing=2;aspect=fixed;fillColor=#000000;direction=south;metaEdit=1;rotation=-90;" vertex="1" parent="8vYfKD7r18sQojz9sVD8-34">
            <mxGeometry x="-2" y="35" width="15" height="10" as="geometry">
              <mxPoint x="10" y="-15" as="offset" />
            </mxGeometry>
          </mxCell>
        </object>
        <object label="%symbol%" placeholders="1" symbol="MUX" class_name="MultiplexerBlock" block_name="" id="8vYfKD7r18sQojz9sVD8-39">
          <mxCell style="whiteSpace=wrap;html=1;aspect=fixed;comic=0;fillColor=#FFFFFF;fontSize=20;align=center;resizable=0;container=1;collapsible=0;points=[];allowArrows=0;metaEdit=1;connectable=0;rotation=-90;" vertex="1" parent="8vYfKD7r18sQojz9sVD8-3">
            <mxGeometry x="573.0263157894736" y="94.77777777777777" width="80" height="80" as="geometry" />
          </mxCell>
        </object>
        <object label="%name%" placeholders="1" name="OUT1" class_name="OutputPortBlock" id="8vYfKD7r18sQojz9sVD8-40">
          <mxCell style="triangle;fillColor=#ffffff;fontSize=14;points=[[1,0.5]];allowArrows=0;verticalAlign=middle;horizontal=1;spacingTop=0;align=left;spacingLeft=4;spacingRight=0;html=1;comic=0;treeFolding=0;treeMoving=0;movable=1;resizable=0;rotatable=1;deletable=1;editable=1;connectable=1;movableLabel=1;spacing=2;aspect=fixed;metaEdit=1;rotation=-90;" vertex="1" parent="8vYfKD7r18sQojz9sVD8-39">
            <mxGeometry x="35" y="-2" width="10" height="15" as="geometry">
              <mxPoint x="5" y="-7" as="offset" />
            </mxGeometry>
          </mxCell>
        </object>
        <object label="%name%" placeholders="1" name="IN1" class_name="InputPortBlock" id="8vYfKD7r18sQojz9sVD8-41">
          <mxCell style="triangle;fontSize=14;points=[[0,0.5]];allowArrows=0;verticalAlign=middle;horizontal=1;spacingTop=0;align=right;spacingLeft=0;spacingRight=8;html=1;comic=0;treeFolding=0;treeMoving=0;resizable=0;movableLabel=1;spacing=2;aspect=fixed;fillColor=#000000;metaEdit=1;rotation=-90;" vertex="1" parent="8vYfKD7r18sQojz9sVD8-39">
            <mxGeometry x="20" y="68" width="10" height="15" as="geometry">
              <mxPoint x="-4" y="-8" as="offset" />
            </mxGeometry>
          </mxCell>
        </object>
        <object label="%name%" placeholders="1" name="IN2" class_name="InputPortBlock" id="8vYfKD7r18sQojz9sVD8-42">
          <mxCell style="triangle;fontSize=14;points=[[0,0.5]];allowArrows=0;verticalAlign=middle;horizontal=1;spacingTop=0;align=right;spacingLeft=0;spacingRight=8;html=1;comic=0;treeFolding=0;treeMoving=0;resizable=0;movableLabel=1;spacing=2;aspect=fixed;fillColor=#000000;metaEdit=1;rotation=-90;" vertex="1" parent="8vYfKD7r18sQojz9sVD8-39">
            <mxGeometry x="50" y="68" width="10" height="15" as="geometry">
              <mxPoint x="-4" y="-8" as="offset" />
            </mxGeometry>
          </mxCell>
        </object>
        <object label="%name%" placeholders="1" name="select" class_name="InputPortBlock" id="8vYfKD7r18sQojz9sVD8-43">
          <mxCell style="triangle;fontSize=14;points=[[0,0.5]];allowArrows=0;verticalAlign=middle;horizontal=1;spacingTop=0;align=left;spacingLeft=2;spacingRight=0;html=1;comic=0;treeFolding=0;treeMoving=0;resizable=0;movableLabel=1;spacing=2;aspect=fixed;fillColor=#000000;direction=south;metaEdit=1;rotation=-90;" vertex="1" parent="8vYfKD7r18sQojz9sVD8-39">
            <mxGeometry x="-2" y="35" width="15" height="10" as="geometry">
              <mxPoint x="10" y="-15" as="offset" />
            </mxGeometry>
          </mxCell>
        </object>
        <object label="%symbol%" placeholders="1" symbol="MUX" class_name="MultiplexerBlock" block_name="" id="8vYfKD7r18sQojz9sVD8-44">
          <mxCell style="whiteSpace=wrap;html=1;aspect=fixed;comic=0;fillColor=#FFFFFF;fontSize=20;align=center;resizable=0;container=1;collapsible=0;points=[];allowArrows=0;metaEdit=1;connectable=0;rotation=-90;" vertex="1" parent="8vYfKD7r18sQojz9sVD8-3">
            <mxGeometry x="683.0263157894736" y="175.77777777777777" width="80" height="80" as="geometry" />
          </mxCell>
        </object>
        <object label="%name%" placeholders="1" name="OUT1" class_name="OutputPortBlock" id="8vYfKD7r18sQojz9sVD8-45">
          <mxCell style="triangle;fillColor=#ffffff;fontSize=14;points=[[1,0.5]];allowArrows=0;verticalAlign=middle;horizontal=1;spacingTop=0;align=left;spacingLeft=4;spacingRight=0;html=1;comic=0;treeFolding=0;treeMoving=0;movable=1;resizable=0;rotatable=1;deletable=1;editable=1;connectable=1;movableLabel=1;spacing=2;aspect=fixed;metaEdit=1;rotation=-90;" vertex="1" parent="8vYfKD7r18sQojz9sVD8-44">
            <mxGeometry x="35" y="-2" width="10" height="15" as="geometry">
              <mxPoint x="5" y="-7" as="offset" />
            </mxGeometry>
          </mxCell>
        </object>
        <object label="%name%" placeholders="1" name="IN1" class_name="InputPortBlock" id="8vYfKD7r18sQojz9sVD8-46">
          <mxCell style="triangle;fontSize=14;points=[[0,0.5]];allowArrows=0;verticalAlign=middle;horizontal=1;spacingTop=0;align=right;spacingLeft=0;spacingRight=8;html=1;comic=0;treeFolding=0;treeMoving=0;resizable=0;movableLabel=1;spacing=2;aspect=fixed;fillColor=#000000;metaEdit=1;rotation=-90;" vertex="1" parent="8vYfKD7r18sQojz9sVD8-44">
            <mxGeometry x="20" y="68" width="10" height="15" as="geometry">
              <mxPoint x="-4" y="-8" as="offset" />
            </mxGeometry>
          </mxCell>
        </object>
        <object label="%name%" placeholders="1" name="IN2" class_name="InputPortBlock" id="8vYfKD7r18sQojz9sVD8-47">
          <mxCell style="triangle;fontSize=14;points=[[0,0.5]];allowArrows=0;verticalAlign=middle;horizontal=1;spacingTop=0;align=right;spacingLeft=0;spacingRight=8;html=1;comic=0;treeFolding=0;treeMoving=0;resizable=0;movableLabel=1;spacing=2;aspect=fixed;fillColor=#000000;metaEdit=1;rotation=-90;" vertex="1" parent="8vYfKD7r18sQojz9sVD8-44">
            <mxGeometry x="50" y="68" width="10" height="15" as="geometry">
              <mxPoint x="-4" y="-8" as="offset" />
            </mxGeometry>
          </mxCell>
        </object>
        <object label="%name%" placeholders="1" name="select" class_name="InputPortBlock" id="8vYfKD7r18sQojz9sVD8-48">
          <mxCell style="triangle;fontSize=14;points=[[0,0.5]];allowArrows=0;verticalAlign=middle;horizontal=1;spacingTop=0;align=left;spacingLeft=2;spacingRight=0;html=1;comic=0;treeFolding=0;treeMoving=0;resizable=0;movableLabel=1;spacing=2;aspect=fixed;fillColor=#000000;direction=south;metaEdit=1;rotation=-90;" vertex="1" parent="8vYfKD7r18sQojz9sVD8-44">
            <mxGeometry x="-2" y="35" width="15" height="10" as="geometry">
              <mxPoint x="10" y="-15" as="offset" />
            </mxGeometry>
          </mxCell>
        </object>
        <object label="%symbol%" placeholders="1" symbol="MUX" class_name="MultiplexerBlock" block_name="" id="8vYfKD7r18sQojz9sVD8-49">
          <mxCell style="whiteSpace=wrap;html=1;aspect=fixed;comic=0;fillColor=#FFFFFF;fontSize=20;align=center;resizable=0;container=1;collapsible=0;points=[];allowArrows=0;metaEdit=1;connectable=0;rotation=-90;" vertex="1" parent="8vYfKD7r18sQojz9sVD8-3">
            <mxGeometry x="793.0263157894736" y="255.77777777777777" width="80" height="80" as="geometry" />
          </mxCell>
        </object>
        <object label="%name%" placeholders="1" name="OUT1" class_name="OutputPortBlock" id="8vYfKD7r18sQojz9sVD8-50">
          <mxCell style="triangle;fillColor=#ffffff;fontSize=14;points=[[1,0.5]];allowArrows=0;verticalAlign=middle;horizontal=1;spacingTop=0;align=left;spacingLeft=4;spacingRight=0;html=1;comic=0;treeFolding=0;treeMoving=0;movable=1;resizable=0;rotatable=1;deletable=1;editable=1;connectable=1;movableLabel=1;spacing=2;aspect=fixed;metaEdit=1;rotation=-90;" vertex="1" parent="8vYfKD7r18sQojz9sVD8-49">
            <mxGeometry x="35" y="-2" width="10" height="15" as="geometry">
              <mxPoint x="5" y="-7" as="offset" />
            </mxGeometry>
          </mxCell>
        </object>
        <object label="%name%" placeholders="1" name="IN1" class_name="InputPortBlock" id="8vYfKD7r18sQojz9sVD8-51">
          <mxCell style="triangle;fontSize=14;points=[[0,0.5]];allowArrows=0;verticalAlign=middle;horizontal=1;spacingTop=0;align=right;spacingLeft=0;spacingRight=8;html=1;comic=0;treeFolding=0;treeMoving=0;resizable=0;movableLabel=1;spacing=2;aspect=fixed;fillColor=#000000;metaEdit=1;rotation=-90;" vertex="1" parent="8vYfKD7r18sQojz9sVD8-49">
            <mxGeometry x="20" y="68" width="10" height="15" as="geometry">
              <mxPoint x="-4" y="-8" as="offset" />
            </mxGeometry>
          </mxCell>
        </object>
        <object label="%name%" placeholders="1" name="IN2" class_name="InputPortBlock" id="8vYfKD7r18sQojz9sVD8-52">
          <mxCell style="triangle;fontSize=14;points=[[0,0.5]];allowArrows=0;verticalAlign=middle;horizontal=1;spacingTop=0;align=right;spacingLeft=0;spacingRight=8;html=1;comic=0;treeFolding=0;treeMoving=0;resizable=0;movableLabel=1;spacing=2;aspect=fixed;fillColor=#000000;metaEdit=1;rotation=-90;" vertex="1" parent="8vYfKD7r18sQojz9sVD8-49">
            <mxGeometry x="50" y="68" width="10" height="15" as="geometry">
              <mxPoint x="-4" y="-8" as="offset" />
            </mxGeometry>
          </mxCell>
        </object>
        <object label="%name%" placeholders="1" name="select" class_name="InputPortBlock" id="8vYfKD7r18sQojz9sVD8-53">
          <mxCell style="triangle;fontSize=14;points=[[0,0.5]];allowArrows=0;verticalAlign=middle;horizontal=1;spacingTop=0;align=left;spacingLeft=2;spacingRight=0;html=1;comic=0;treeFolding=0;treeMoving=0;resizable=0;movableLabel=1;spacing=2;aspect=fixed;fillColor=#000000;direction=south;metaEdit=1;rotation=-90;" vertex="1" parent="8vYfKD7r18sQojz9sVD8-49">
            <mxGeometry x="-2" y="35" width="15" height="10" as="geometry">
              <mxPoint x="10" y="-15" as="offset" />
            </mxGeometry>
          </mxCell>
        </object>
        <mxCell id="8vYfKD7r18sQojz9sVD8-54" style="edgeStyle=orthogonalEdgeStyle;rounded=0;orthogonalLoop=1;jettySize=auto;html=1;exitX=1;exitY=0.5;exitDx=0;exitDy=0;entryX=0.75;entryY=0.367;entryDx=0;entryDy=0;entryPerimeter=0;" edge="1" parent="8vYfKD7r18sQojz9sVD8-3" source="8vYfKD7r18sQojz9sVD8-15" target="8vYfKD7r18sQojz9sVD8-38">
          <mxGeometry relative="1" as="geometry" />
        </mxCell>
        <mxCell id="8vYfKD7r18sQojz9sVD8-55" style="edgeStyle=orthogonalEdgeStyle;rounded=0;orthogonalLoop=1;jettySize=auto;html=1;exitX=1;exitY=0.5;exitDx=0;exitDy=0;entryX=0.75;entryY=0.433;entryDx=0;entryDy=0;entryPerimeter=0;" edge="1" parent="8vYfKD7r18sQojz9sVD8-3" source="8vYfKD7r18sQojz9sVD8-19" target="8vYfKD7r18sQojz9sVD8-43">
          <mxGeometry relative="1" as="geometry" />
        </mxCell>
        <mxCell id="8vYfKD7r18sQojz9sVD8-56" style="edgeStyle=orthogonalEdgeStyle;rounded=0;orthogonalLoop=1;jettySize=auto;html=1;exitX=1;exitY=0.5;exitDx=0;exitDy=0;entryX=0;entryY=0.5;entryDx=0;entryDy=0;" edge="1" parent="8vYfKD7r18sQojz9sVD8-3" source="8vYfKD7r18sQojz9sVD8-23" target="8vYfKD7r18sQojz9sVD8-48">
          <mxGeometry relative="1" as="geometry" />
        </mxCell>
        <mxCell id="8vYfKD7r18sQojz9sVD8-57" style="edgeStyle=orthogonalEdgeStyle;rounded=0;orthogonalLoop=1;jettySize=auto;html=1;exitX=1;exitY=0.5;exitDx=0;exitDy=0;entryX=0;entryY=0.5;entryDx=0;entryDy=0;" edge="1" parent="8vYfKD7r18sQojz9sVD8-3" source="8vYfKD7r18sQojz9sVD8-27" target="8vYfKD7r18sQojz9sVD8-53">
          <mxGeometry relative="1" as="geometry" />
        </mxCell>
        <object label="%value%" placeholders="1" value="0" block_name="" class_name="ConstantBlock" id="8vYfKD7r18sQojz9sVD8-58">
          <mxCell style="ellipse;whiteSpace=wrap;html=1;comic=0;fillColor=#ffffff;fontSize=24;align=center;allowArrows=0;connectable=0;container=1;collapsible=0;recursiveResize=1;direction=west;resizable=0;metaEdit=1;rotation=-90;" vertex="1" parent="8vYfKD7r18sQojz9sVD8-3">
            <mxGeometry x="453.02631578947364" y="462.77777777777777" width="80" height="80" as="geometry" />
          </mxCell>
        </object>
        <object label="%name%" placeholders="1" name="OUT1" class_name="OutputPortBlock" id="8vYfKD7r18sQojz9sVD8-59">
          <mxCell style="triangle;fillColor=#ffffff;fontSize=14;points=[[1,0.5]];allowArrows=0;verticalAlign=middle;horizontal=1;spacingTop=0;align=left;spacingLeft=4;spacingRight=0;html=1;comic=0;treeFolding=0;treeMoving=0;movable=1;resizable=0;rotatable=1;deletable=1;editable=1;connectable=1;movableLabel=1;spacing=2;aspect=fixed;metaEdit=1;rotation=-90;" vertex="1" parent="8vYfKD7r18sQojz9sVD8-58">
            <mxGeometry x="35" y="-2" width="10" height="15" as="geometry">
              <mxPoint x="6" y="-7" as="offset" />
            </mxGeometry>
          </mxCell>
        </object>
        <object label="%value%" placeholders="1" value="10" block_name="" class_name="ConstantBlock" id="8vYfKD7r18sQojz9sVD8-60">
          <mxCell style="ellipse;whiteSpace=wrap;html=1;comic=0;fillColor=#ffffff;fontSize=24;align=center;allowArrows=0;connectable=0;container=1;collapsible=0;recursiveResize=1;direction=west;resizable=0;metaEdit=1;rotation=-90;" vertex="1" parent="8vYfKD7r18sQojz9sVD8-3">
            <mxGeometry x="543.0263157894736" y="462.77777777777777" width="80" height="80" as="geometry" />
          </mxCell>
        </object>
        <object label="%name%" placeholders="1" name="OUT1" class_name="OutputPortBlock" id="8vYfKD7r18sQojz9sVD8-61">
          <mxCell style="triangle;fillColor=#ffffff;fontSize=14;points=[[1,0.5]];allowArrows=0;verticalAlign=middle;horizontal=1;spacingTop=0;align=left;spacingLeft=4;spacingRight=0;html=1;comic=0;treeFolding=0;treeMoving=0;movable=1;resizable=0;rotatable=1;deletable=1;editable=1;connectable=1;movableLabel=1;spacing=2;aspect=fixed;metaEdit=1;rotation=-90;" vertex="1" parent="8vYfKD7r18sQojz9sVD8-60">
            <mxGeometry x="35" y="-2" width="10" height="15" as="geometry">
              <mxPoint x="6" y="-7" as="offset" />
            </mxGeometry>
          </mxCell>
        </object>
        <mxCell id="8vYfKD7r18sQojz9sVD8-62" style="edgeStyle=orthogonalEdgeStyle;rounded=0;orthogonalLoop=1;jettySize=auto;html=1;exitX=1;exitY=0.5;exitDx=0;exitDy=0;entryX=0;entryY=0.5;entryDx=0;entryDy=0;" edge="1" parent="8vYfKD7r18sQojz9sVD8-3" source="8vYfKD7r18sQojz9sVD8-59" target="8vYfKD7r18sQojz9sVD8-36">
          <mxGeometry relative="1" as="geometry" />
        </mxCell>
        <mxCell id="8vYfKD7r18sQojz9sVD8-63" style="edgeStyle=orthogonalEdgeStyle;rounded=0;orthogonalLoop=1;jettySize=auto;html=1;exitX=1;exitY=0.5;exitDx=0;exitDy=0;entryX=0;entryY=0.5;entryDx=0;entryDy=0;" edge="1" parent="8vYfKD7r18sQojz9sVD8-3" source="8vYfKD7r18sQojz9sVD8-61" target="8vYfKD7r18sQojz9sVD8-37">
          <mxGeometry relative="1" as="geometry" />
        </mxCell>
        <object label="%value%" placeholders="1" value="8" block_name="" class_name="ConstantBlock" id="8vYfKD7r18sQojz9sVD8-64">
          <mxCell style="ellipse;whiteSpace=wrap;html=1;comic=0;fillColor=#ffffff;fontSize=24;align=center;allowArrows=0;connectable=0;container=1;collapsible=0;recursiveResize=1;direction=west;resizable=0;metaEdit=1;rotation=-90;" vertex="1" parent="8vYfKD7r18sQojz9sVD8-3">
            <mxGeometry x="633.0263157894736" y="462.77777777777777" width="80" height="80" as="geometry" />
          </mxCell>
        </object>
        <object label="%name%" placeholders="1" name="OUT1" class_name="OutputPortBlock" id="8vYfKD7r18sQojz9sVD8-65">
          <mxCell style="triangle;fillColor=#ffffff;fontSize=14;points=[[1,0.5]];allowArrows=0;verticalAlign=middle;horizontal=1;spacingTop=0;align=left;spacingLeft=4;spacingRight=0;html=1;comic=0;treeFolding=0;treeMoving=0;movable=1;resizable=0;rotatable=1;deletable=1;editable=1;connectable=1;movableLabel=1;spacing=2;aspect=fixed;metaEdit=1;rotation=-90;" vertex="1" parent="8vYfKD7r18sQojz9sVD8-64">
            <mxGeometry x="35" y="-2" width="10" height="15" as="geometry">
              <mxPoint x="6" y="-7" as="offset" />
            </mxGeometry>
          </mxCell>
        </object>
        <mxCell id="8vYfKD7r18sQojz9sVD8-66" style="edgeStyle=orthogonalEdgeStyle;rounded=0;orthogonalLoop=1;jettySize=auto;html=1;exitX=1;exitY=0.5;exitDx=0;exitDy=0;entryX=0;entryY=0.5;entryDx=0;entryDy=0;" edge="1" parent="8vYfKD7r18sQojz9sVD8-3" source="8vYfKD7r18sQojz9sVD8-65" target="8vYfKD7r18sQojz9sVD8-42">
          <mxGeometry relative="1" as="geometry" />
        </mxCell>
        <object label="%value%" placeholders="1" value="18" block_name="" class_name="ConstantBlock" id="8vYfKD7r18sQojz9sVD8-67">
          <mxCell style="ellipse;whiteSpace=wrap;html=1;comic=0;fillColor=#ffffff;fontSize=24;align=center;allowArrows=0;connectable=0;container=1;collapsible=0;recursiveResize=1;direction=west;resizable=0;metaEdit=1;rotation=-90;" vertex="1" parent="8vYfKD7r18sQojz9sVD8-3">
            <mxGeometry x="723.0263157894736" y="462.77777777777777" width="80" height="80" as="geometry" />
          </mxCell>
        </object>
        <object label="%name%" placeholders="1" name="OUT1" class_name="OutputPortBlock" id="8vYfKD7r18sQojz9sVD8-68">
          <mxCell style="triangle;fillColor=#ffffff;fontSize=14;points=[[1,0.5]];allowArrows=0;verticalAlign=middle;horizontal=1;spacingTop=0;align=left;spacingLeft=4;spacingRight=0;html=1;comic=0;treeFolding=0;treeMoving=0;movable=1;resizable=0;rotatable=1;deletable=1;editable=1;connectable=1;movableLabel=1;spacing=2;aspect=fixed;metaEdit=1;rotation=-90;" vertex="1" parent="8vYfKD7r18sQojz9sVD8-67">
            <mxGeometry x="35" y="-2" width="10" height="15" as="geometry">
              <mxPoint x="6" y="-7" as="offset" />
            </mxGeometry>
          </mxCell>
        </object>
        <mxCell id="8vYfKD7r18sQojz9sVD8-69" style="edgeStyle=orthogonalEdgeStyle;rounded=0;orthogonalLoop=1;jettySize=auto;html=1;exitX=1;exitY=0.5;exitDx=0;exitDy=0;entryX=0;entryY=0.5;entryDx=0;entryDy=0;" edge="1" parent="8vYfKD7r18sQojz9sVD8-3" source="8vYfKD7r18sQojz9sVD8-68" target="8vYfKD7r18sQojz9sVD8-47">
          <mxGeometry relative="1" as="geometry" />
        </mxCell>
        <object label="%value%" placeholders="1" value="12" block_name="" class_name="ConstantBlock" id="8vYfKD7r18sQojz9sVD8-70">
          <mxCell style="ellipse;whiteSpace=wrap;html=1;comic=0;fillColor=#ffffff;fontSize=24;align=center;allowArrows=0;connectable=0;container=1;collapsible=0;recursiveResize=1;direction=west;resizable=0;metaEdit=1;rotation=-90;" vertex="1" parent="8vYfKD7r18sQojz9sVD8-3">
            <mxGeometry x="813.0263157894736" y="462.77777777777777" width="80" height="80" as="geometry" />
          </mxCell>
        </object>
        <object label="%name%" placeholders="1" name="OUT1" class_name="OutputPortBlock" id="8vYfKD7r18sQojz9sVD8-71">
          <mxCell style="triangle;fillColor=#ffffff;fontSize=14;points=[[1,0.5]];allowArrows=0;verticalAlign=middle;horizontal=1;spacingTop=0;align=left;spacingLeft=4;spacingRight=0;html=1;comic=0;treeFolding=0;treeMoving=0;movable=1;resizable=0;rotatable=1;deletable=1;editable=1;connectable=1;movableLabel=1;spacing=2;aspect=fixed;metaEdit=1;rotation=-90;" vertex="1" parent="8vYfKD7r18sQojz9sVD8-70">
            <mxGeometry x="35" y="-2" width="10" height="15" as="geometry">
              <mxPoint x="6" y="-7" as="offset" />
            </mxGeometry>
          </mxCell>
        </object>
        <mxCell id="8vYfKD7r18sQojz9sVD8-72" style="edgeStyle=orthogonalEdgeStyle;rounded=0;orthogonalLoop=1;jettySize=auto;html=1;exitX=1;exitY=0.5;exitDx=0;exitDy=0;entryX=0;entryY=0.5;entryDx=0;entryDy=0;" edge="1" parent="8vYfKD7r18sQojz9sVD8-3" source="8vYfKD7r18sQojz9sVD8-71" target="8vYfKD7r18sQojz9sVD8-52">
          <mxGeometry relative="1" as="geometry" />
        </mxCell>
        <mxCell id="8vYfKD7r18sQojz9sVD8-73" style="edgeStyle=orthogonalEdgeStyle;rounded=0;orthogonalLoop=1;jettySize=auto;html=1;exitX=1;exitY=0.5;exitDx=0;exitDy=0;entryX=0;entryY=0.5;entryDx=0;entryDy=0;" edge="1" parent="8vYfKD7r18sQojz9sVD8-3" source="8vYfKD7r18sQojz9sVD8-35" target="8vYfKD7r18sQojz9sVD8-41">
          <mxGeometry relative="1" as="geometry" />
        </mxCell>
        <mxCell id="8vYfKD7r18sQojz9sVD8-74" style="edgeStyle=orthogonalEdgeStyle;rounded=0;orthogonalLoop=1;jettySize=auto;html=1;exitX=1;exitY=0.5;exitDx=0;exitDy=0;entryX=0;entryY=0.5;entryDx=0;entryDy=0;" edge="1" parent="8vYfKD7r18sQojz9sVD8-3" source="8vYfKD7r18sQojz9sVD8-40" target="8vYfKD7r18sQojz9sVD8-46">
          <mxGeometry relative="1" as="geometry" />
        </mxCell>
        <mxCell id="8vYfKD7r18sQojz9sVD8-75" style="edgeStyle=orthogonalEdgeStyle;rounded=0;orthogonalLoop=1;jettySize=auto;html=1;exitX=1;exitY=0.5;exitDx=0;exitDy=0;entryX=0;entryY=0.5;entryDx=0;entryDy=0;" edge="1" parent="8vYfKD7r18sQojz9sVD8-3" source="8vYfKD7r18sQojz9sVD8-45" target="8vYfKD7r18sQojz9sVD8-51">
          <mxGeometry relative="1" as="geometry" />
        </mxCell>
        <mxCell id="8vYfKD7r18sQojz9sVD8-76" style="edgeStyle=orthogonalEdgeStyle;rounded=0;orthogonalLoop=1;jettySize=auto;html=1;exitX=1;exitY=0.5;exitDx=0;exitDy=0;entryX=0;entryY=0.5;entryDx=0;entryDy=0;" edge="1" parent="8vYfKD7r18sQojz9sVD8-3" source="8vYfKD7r18sQojz9sVD8-11" target="8vYfKD7r18sQojz9sVD8-17">
          <mxGeometry relative="1" as="geometry" />
        </mxCell>
        <mxCell id="8vYfKD7r18sQojz9sVD8-77" style="edgeStyle=orthogonalEdgeStyle;rounded=0;orthogonalLoop=1;jettySize=auto;html=1;exitX=1;exitY=0.5;exitDx=0;exitDy=0;entryX=0;entryY=0.5;entryDx=0;entryDy=0;" edge="1" parent="8vYfKD7r18sQojz9sVD8-3" source="8vYfKD7r18sQojz9sVD8-11" target="8vYfKD7r18sQojz9sVD8-21">
          <mxGeometry relative="1" as="geometry" />
        </mxCell>
        <mxCell id="8vYfKD7r18sQojz9sVD8-78" style="edgeStyle=orthogonalEdgeStyle;rounded=0;orthogonalLoop=1;jettySize=auto;html=1;exitX=1;exitY=0.5;exitDx=0;exitDy=0;entryX=0;entryY=0.5;entryDx=0;entryDy=0;" edge="1" parent="8vYfKD7r18sQojz9sVD8-3" source="8vYfKD7r18sQojz9sVD8-11" target="8vYfKD7r18sQojz9sVD8-25">
          <mxGeometry relative="1" as="geometry" />
        </mxCell>
        <mxCell id="8vYfKD7r18sQojz9sVD8-79" style="edgeStyle=orthogonalEdgeStyle;rounded=0;orthogonalLoop=1;jettySize=auto;html=1;exitX=1;exitY=0.5;exitDx=0;exitDy=0;entryX=0;entryY=0.5;entryDx=0;entryDy=0;" edge="1" parent="8vYfKD7r18sQojz9sVD8-3" source="8vYfKD7r18sQojz9sVD8-11" target="8vYfKD7r18sQojz9sVD8-29">
          <mxGeometry relative="1" as="geometry" />
        </mxCell>
        <object label="%name%" placeholders="1" name="OUT1" class_name="OutputPortBlock" id="8vYfKD7r18sQojz9sVD8-80">
          <mxCell style="triangle;fillColor=#ffffff;fontSize=14;points=[[0,0.5],[1,0.5]];allowArrows=0;verticalAlign=middle;horizontal=1;spacingTop=0;align=left;spacingLeft=4;spacingRight=0;html=1;comic=0;treeFolding=0;treeMoving=0;movable=1;resizable=0;rotatable=1;deletable=1;editable=1;connectable=1;movableLabel=1;spacing=2;aspect=fixed;metaEdit=1;" vertex="1" parent="8vYfKD7r18sQojz9sVD8-3">
            <mxGeometry x="993.0263157894736" y="224.9977777777778" width="10" height="15" as="geometry">
              <mxPoint x="5" y="-7" as="offset" />
            </mxGeometry>
          </mxCell>
        </object>
        <mxCell id="8vYfKD7r18sQojz9sVD8-81" style="edgeStyle=orthogonalEdgeStyle;rounded=0;orthogonalLoop=1;jettySize=auto;html=1;exitX=1;exitY=0.5;exitDx=0;exitDy=0;entryX=0;entryY=0.5;entryDx=0;entryDy=0;" edge="1" parent="8vYfKD7r18sQojz9sVD8-3" source="8vYfKD7r18sQojz9sVD8-50" target="8vYfKD7r18sQojz9sVD8-80">
          <mxGeometry relative="1" as="geometry" />
        </mxCell>
        <object label="" placeholders="1" class_name="PIDBlock" id="8vYfKD7r18sQojz9sVD8-82">
          <mxCell style="rounded=0;whiteSpace=wrap;html=1;fillColor=#fff2cc;strokeColor=#d6b656;container=0;connectable=0;allowArrows=0;treeFolding=0;moveCells=0;treeMoving=0;comic=0;rotatable=0;expand=1;autosize=1;resizeWidth=1;resizeHeight=1;metaEdit=1;" vertex="1" parent="1">
            <mxGeometry x="-720" y="-530" width="760" height="540" as="geometry">
              <mxRectangle x="40" y="400" width="50" height="40" as="alternateBounds" />
            </mxGeometry>
          </mxCell>
        </object>
        <object label="%class_name%" placeholders="1" id="8vYfKD7r18sQojz9sVD8-83">
          <mxCell style="rounded=0;whiteSpace=wrap;html=1;fillColor=#ffffff;fontSize=18;connectable=0;allowArrows=0;rotatable=0;cloneable=0;deletable=0;" vertex="1" parent="8vYfKD7r18sQojz9sVD8-82">
            <mxGeometry x="10" y="20" width="740" height="40" as="geometry" />
          </mxCell>
        </object>
        <mxCell id="8vYfKD7r18sQojz9sVD8-84" value="" style="rounded=0;whiteSpace=wrap;html=1;fillColor=#ffffff;connectable=0;allowArrows=0;container=1;collapsible=0;portConstraintRotation=0;rotatable=0;cloneable=0;deletable=0;recursiveResize=0;" vertex="1" parent="8vYfKD7r18sQojz9sVD8-82">
          <mxGeometry x="10" y="70" width="740" height="460" as="geometry">
            <mxRectangle x="10" y="70" width="50" height="40" as="alternateBounds" />
          </mxGeometry>
        </mxCell>
        <object label="%symbol%" placeholders="1" symbol="&amp;sum;" class_name="AdderBlock" block_name="" id="8vYfKD7r18sQojz9sVD8-89">
          <mxCell style="whiteSpace=wrap;html=1;aspect=fixed;comic=0;fillColor=#FFFFFF;fontSize=36;align=center;resizable=0;container=1;collapsible=0;points=[];allowArrows=0;spacingTop=-6;metaEdit=1;connectable=0;" vertex="1" parent="8vYfKD7r18sQojz9sVD8-84">
            <mxGeometry x="590" y="150" width="80" height="80" as="geometry" />
          </mxCell>
        </object>
        <object label="%name%" placeholders="1" name="OUT1" class_name="OutputPortBlock" id="8vYfKD7r18sQojz9sVD8-90">
          <mxCell style="triangle;fillColor=#ffffff;fontSize=14;points=[[1,0.5]];allowArrows=0;verticalAlign=middle;horizontal=1;spacingTop=0;align=left;spacingLeft=4;spacingRight=0;html=1;comic=0;treeFolding=0;treeMoving=0;movable=1;resizable=0;rotatable=1;deletable=1;editable=1;connectable=1;movableLabel=1;spacing=2;aspect=fixed;metaEdit=1;" vertex="1" parent="8vYfKD7r18sQojz9sVD8-89">
            <mxGeometry x="70" y="32.5" width="10" height="15" as="geometry">
              <mxPoint x="5" y="-7" as="offset" />
            </mxGeometry>
          </mxCell>
        </object>
        <object label="%name%" placeholders="1" name="IN1" class_name="InputPortBlock" id="8vYfKD7r18sQojz9sVD8-91">
          <mxCell style="triangle;fontSize=14;points=[[0,0.5]];allowArrows=0;verticalAlign=middle;horizontal=1;spacingTop=0;align=right;spacingLeft=0;spacingRight=8;html=1;comic=0;treeFolding=0;treeMoving=0;resizable=0;movableLabel=1;spacing=2;aspect=fixed;fillColor=#000000;metaEdit=1;" vertex="1" parent="8vYfKD7r18sQojz9sVD8-89">
            <mxGeometry y="17.5" width="10" height="15" as="geometry">
              <mxPoint x="-4" y="-8" as="offset" />
            </mxGeometry>
          </mxCell>
        </object>
        <object label="%name%" placeholders="1" name="IN2" class_name="InputPortBlock" id="8vYfKD7r18sQojz9sVD8-92">
          <mxCell style="triangle;fontSize=14;points=[[0,0.5]];allowArrows=0;verticalAlign=middle;horizontal=1;spacingTop=0;align=right;spacingLeft=0;spacingRight=8;html=1;comic=0;treeFolding=0;treeMoving=0;resizable=0;movableLabel=1;spacing=2;aspect=fixed;fillColor=#000000;metaEdit=1;" vertex="1" parent="8vYfKD7r18sQojz9sVD8-89">
            <mxGeometry y="47.5" width="10" height="15" as="geometry">
              <mxPoint x="-4" y="-8" as="offset" />
            </mxGeometry>
          </mxCell>
        </object>
        <object label="%symbol%" class_name="IntegratorBlock" block_name="" symbol="&amp;int;" placeholders="1" id="8vYfKD7r18sQojz9sVD8-99">
          <mxCell style="shape=stencil(7ZVNDoMgEIVPw95IF24b294DFSuRggGq7e3LjzYSS6NRdybGMM7jyzi8CQCmskINBnFUAXgBcZxE+qXDzg+RbHCu3LcWCYIyil1GKsFr3JFC9QTCKiyIMll4BdFZa8zzXcA054xpGuFMepKJEMS3kHakylBe3wV/suIfbVA3yBQ60f1UD3sevDUterkf7Fvy9iJd6lIqJWxEhftgEx972qncZCvuZticcomXbbWGC/jDd2XAciNRyQWeb8qSUOoGKVjxYeTDyOuOe6eDWd/AWXM3SOeOiYUGplAvbNrdfTbzAQ==);whiteSpace=wrap;html=1;aspect=fixed;resizable=0;container=1;collapsible=0;spacingLeft=5;connectable=0;allowArrows=0;fontSize=36;spacingTop=7;metaEdit=1;" vertex="1" parent="8vYfKD7r18sQojz9sVD8-84">
            <mxGeometry x="140" y="290" width="80" height="80" as="geometry" />
          </mxCell>
        </object>
        <object label="%name%" placeholders="1" name="IC" class_name="InputPortBlock" id="8vYfKD7r18sQojz9sVD8-100">
          <mxCell style="triangle;fontSize=14;points=[[0,0.5]];allowArrows=0;verticalAlign=middle;horizontal=1;spacingTop=0;align=right;spacingLeft=0;spacingRight=8;html=1;comic=0;treeFolding=0;treeMoving=0;resizable=0;movableLabel=1;spacing=2;aspect=fixed;fillColor=#000000;metaEdit=1;" vertex="1" parent="8vYfKD7r18sQojz9sVD8-99">
            <mxGeometry width="10" height="15" as="geometry">
              <mxPoint x="-4" y="-8" as="offset" />
            </mxGeometry>
          </mxCell>
        </object>
        <object label="%name%" placeholders="1" name="IN1" class_name="InputPortBlock" id="8vYfKD7r18sQojz9sVD8-101">
          <mxCell style="triangle;fontSize=14;points=[[0,0.5]];allowArrows=0;verticalAlign=middle;horizontal=1;spacingTop=0;align=right;spacingLeft=0;spacingRight=8;html=1;comic=0;treeFolding=0;treeMoving=0;resizable=0;movableLabel=1;spacing=2;aspect=fixed;fillColor=#000000;metaEdit=1;" vertex="1" parent="8vYfKD7r18sQojz9sVD8-99">
            <mxGeometry y="32.75" width="10" height="15" as="geometry">
              <mxPoint x="-4" y="-8" as="offset" />
            </mxGeometry>
          </mxCell>
        </object>
        <object label="%name%" placeholders="1" name="delta_t" class_name="InputPortBlock" id="8vYfKD7r18sQojz9sVD8-102">
          <mxCell style="triangle;fontSize=14;points=[[0,0.5]];allowArrows=0;verticalAlign=middle;horizontal=1;spacingTop=0;align=right;spacingLeft=0;spacingRight=8;html=1;comic=0;treeFolding=0;treeMoving=0;resizable=0;movableLabel=1;spacing=2;aspect=fixed;fillColor=#000000;metaEdit=1;" vertex="1" parent="8vYfKD7r18sQojz9sVD8-99">
            <mxGeometry y="65" width="10" height="15" as="geometry">
              <mxPoint x="-4" y="-8" as="offset" />
            </mxGeometry>
          </mxCell>
        </object>
        <object label="%name%" placeholders="1" name="OUT1" class_name="OutputPortBlock" id="8vYfKD7r18sQojz9sVD8-103">
          <mxCell style="triangle;fillColor=#ffffff;fontSize=14;points=[[1,0.5]];allowArrows=0;verticalAlign=middle;horizontal=1;spacingTop=0;align=left;spacingLeft=4;spacingRight=0;html=1;comic=0;treeFolding=0;treeMoving=0;movable=1;resizable=0;rotatable=1;deletable=1;editable=1;connectable=1;movableLabel=1;spacing=2;aspect=fixed;metaEdit=1;" vertex="1" parent="8vYfKD7r18sQojz9sVD8-99">
            <mxGeometry x="70" y="32.75" width="10" height="15" as="geometry">
              <mxPoint x="5" y="-7" as="offset" />
            </mxGeometry>
          </mxCell>
        </object>
        <mxCell id="8vYfKD7r18sQojz9sVD8-104" style="edgeStyle=orthogonalEdgeStyle;rounded=0;orthogonalLoop=1;jettySize=auto;html=1;exitX=1;exitY=0.5;exitDx=0;exitDy=0;entryX=0;entryY=0.5;entryDx=0;entryDy=0;" edge="1" parent="8vYfKD7r18sQojz9sVD8-84" source="8vYfKD7r18sQojz9sVD8-107" target="8vYfKD7r18sQojz9sVD8-117">
          <mxGeometry relative="1" as="geometry" />
        </mxCell>
        <mxCell id="8vYfKD7r18sQojz9sVD8-106" style="edgeStyle=orthogonalEdgeStyle;rounded=0;orthogonalLoop=1;jettySize=auto;html=1;exitX=1;exitY=0.5;exitDx=0;exitDy=0;entryX=0;entryY=0.5;entryDx=0;entryDy=0;" edge="1" parent="8vYfKD7r18sQojz9sVD8-84" source="8vYfKD7r18sQojz9sVD8-107" target="8vYfKD7r18sQojz9sVD8-101">
          <mxGeometry relative="1" as="geometry">
            <Array as="points">
              <mxPoint x="90" y="174" />
              <mxPoint x="90" y="330" />
            </Array>
          </mxGeometry>
        </mxCell>
        <object label="%name%" placeholders="1" name="IN1" class_name="InputPortBlock" id="8vYfKD7r18sQojz9sVD8-107">
          <mxCell style="triangle;fontSize=14;points=[[0,0.5],[1,0.5]];allowArrows=0;verticalAlign=middle;horizontal=1;spacingTop=0;align=right;spacingLeft=0;spacingRight=8;html=1;comic=0;treeFolding=0;treeMoving=0;resizable=0;movableLabel=1;spacing=2;aspect=fixed;fillColor=#000000;metaEdit=1;" vertex="1" parent="8vYfKD7r18sQojz9sVD8-84">
            <mxGeometry x="70" y="166.5" width="10" height="15" as="geometry">
              <mxPoint x="-4" y="-8" as="offset" />
            </mxGeometry>
          </mxCell>
        </object>
        <object label="%symbol%" placeholders="1" symbol="&amp;prod;" class_name="ProductBlock" block_name="" id="8vYfKD7r18sQojz9sVD8-115">
          <mxCell style="whiteSpace=wrap;html=1;aspect=fixed;comic=0;fillColor=#FFFFFF;fontSize=36;align=center;resizable=0;container=1;collapsible=0;points=[];allowArrows=0;spacingTop=-6;metaEdit=1;connectable=0;" vertex="1" parent="8vYfKD7r18sQojz9sVD8-84">
            <mxGeometry x="297" y="150" width="80" height="80" as="geometry" />
          </mxCell>
        </object>
        <object label="%name%" placeholders="1" name="OUT1" class_name="OutputPortBlock" id="8vYfKD7r18sQojz9sVD8-116">
          <mxCell style="triangle;fillColor=#ffffff;fontSize=14;points=[[1,0.5]];allowArrows=0;verticalAlign=middle;horizontal=1;spacingTop=0;align=left;spacingLeft=4;spacingRight=0;html=1;comic=0;treeFolding=0;treeMoving=0;movable=1;resizable=0;rotatable=1;deletable=1;editable=1;connectable=1;movableLabel=1;spacing=2;aspect=fixed;metaEdit=1;" vertex="1" parent="8vYfKD7r18sQojz9sVD8-115">
            <mxGeometry x="70" y="32.5" width="10" height="15" as="geometry">
              <mxPoint x="5" y="-7" as="offset" />
            </mxGeometry>
          </mxCell>
        </object>
        <object label="%name%" placeholders="1" name="IN1" class_name="InputPortBlock" id="8vYfKD7r18sQojz9sVD8-117">
          <mxCell style="triangle;fontSize=14;points=[[0,0.5]];allowArrows=0;verticalAlign=middle;horizontal=1;spacingTop=0;align=right;spacingLeft=0;spacingRight=8;html=1;comic=0;treeFolding=0;treeMoving=0;resizable=0;movableLabel=1;spacing=2;aspect=fixed;fillColor=#000000;metaEdit=1;" vertex="1" parent="8vYfKD7r18sQojz9sVD8-115">
            <mxGeometry y="17.5" width="10" height="15" as="geometry">
              <mxPoint x="-4" y="-8" as="offset" />
            </mxGeometry>
          </mxCell>
        </object>
        <object label="%name%" placeholders="1" name="IN2" class_name="InputPortBlock" id="8vYfKD7r18sQojz9sVD8-118">
          <mxCell style="triangle;fontSize=14;points=[[0,0.5]];allowArrows=0;verticalAlign=middle;horizontal=1;spacingTop=0;align=right;spacingLeft=0;spacingRight=8;html=1;comic=0;treeFolding=0;treeMoving=0;resizable=0;movableLabel=1;spacing=2;aspect=fixed;fillColor=#000000;metaEdit=1;" vertex="1" parent="8vYfKD7r18sQojz9sVD8-115">
            <mxGeometry y="47.5" width="10" height="15" as="geometry">
              <mxPoint x="-4" y="-8" as="offset" />
            </mxGeometry>
          </mxCell>
        </object>
        <object label="%symbol%" placeholders="1" symbol="&amp;prod;" class_name="ProductBlock" block_name="" id="8vYfKD7r18sQojz9sVD8-119">
          <mxCell style="whiteSpace=wrap;html=1;aspect=fixed;comic=0;fillColor=#FFFFFF;fontSize=36;align=center;resizable=0;container=1;collapsible=0;points=[];allowArrows=0;spacingTop=-6;metaEdit=1;connectable=0;" vertex="1" parent="8vYfKD7r18sQojz9sVD8-84">
            <mxGeometry x="297" y="290" width="80" height="80" as="geometry" />
          </mxCell>
        </object>
        <object label="%name%" placeholders="1" name="OUT1" class_name="OutputPortBlock" id="8vYfKD7r18sQojz9sVD8-120">
          <mxCell style="triangle;fillColor=#ffffff;fontSize=14;points=[[1,0.5]];allowArrows=0;verticalAlign=middle;horizontal=1;spacingTop=0;align=left;spacingLeft=4;spacingRight=0;html=1;comic=0;treeFolding=0;treeMoving=0;movable=1;resizable=0;rotatable=1;deletable=1;editable=1;connectable=1;movableLabel=1;spacing=2;aspect=fixed;metaEdit=1;" vertex="1" parent="8vYfKD7r18sQojz9sVD8-119">
            <mxGeometry x="70" y="32.5" width="10" height="15" as="geometry">
              <mxPoint x="5" y="-7" as="offset" />
            </mxGeometry>
          </mxCell>
        </object>
        <object label="%name%" placeholders="1" name="IN1" class_name="InputPortBlock" id="8vYfKD7r18sQojz9sVD8-121">
          <mxCell style="triangle;fontSize=14;points=[[0,0.5]];allowArrows=0;verticalAlign=middle;horizontal=1;spacingTop=0;align=right;spacingLeft=0;spacingRight=8;html=1;comic=0;treeFolding=0;treeMoving=0;resizable=0;movableLabel=1;spacing=2;aspect=fixed;fillColor=#000000;metaEdit=1;" vertex="1" parent="8vYfKD7r18sQojz9sVD8-119">
            <mxGeometry y="17.5" width="10" height="15" as="geometry">
              <mxPoint x="-4" y="-8" as="offset" />
            </mxGeometry>
          </mxCell>
        </object>
        <object label="%name%" placeholders="1" name="IN2" class_name="InputPortBlock" id="8vYfKD7r18sQojz9sVD8-122">
          <mxCell style="triangle;fontSize=14;points=[[0,0.5]];allowArrows=0;verticalAlign=middle;horizontal=1;spacingTop=0;align=right;spacingLeft=0;spacingRight=8;html=1;comic=0;treeFolding=0;treeMoving=0;resizable=0;movableLabel=1;spacing=2;aspect=fixed;fillColor=#000000;metaEdit=1;" vertex="1" parent="8vYfKD7r18sQojz9sVD8-119">
            <mxGeometry y="47.5" width="10" height="15" as="geometry">
              <mxPoint x="-4" y="-8" as="offset" />
            </mxGeometry>
          </mxCell>
        </object>
        <object label="%value%" placeholders="1" value="329.38" block_name="k" class_name="ConstantBlock" id="8vYfKD7r18sQojz9sVD8-123">
          <mxCell style="ellipse;whiteSpace=wrap;html=1;comic=0;fillColor=#ffffff;fontSize=24;align=center;allowArrows=0;connectable=0;container=1;collapsible=0;recursiveResize=1;direction=west;resizable=0;metaEdit=1;" vertex="1" parent="8vYfKD7r18sQojz9sVD8-84">
            <mxGeometry x="140" y="190" width="80" height="80" as="geometry" />
          </mxCell>
        </object>
        <object label="%name%" placeholders="1" name="OUT1" class_name="OutputPortBlock" id="8vYfKD7r18sQojz9sVD8-124">
          <mxCell style="triangle;fillColor=#ffffff;fontSize=14;points=[[1,0.5]];allowArrows=0;verticalAlign=middle;horizontal=1;spacingTop=0;align=left;spacingLeft=4;spacingRight=0;html=1;comic=0;treeFolding=0;treeMoving=0;movable=1;resizable=0;rotatable=1;deletable=1;editable=1;connectable=1;movableLabel=1;spacing=2;aspect=fixed;metaEdit=1;" vertex="1" parent="8vYfKD7r18sQojz9sVD8-123">
            <mxGeometry x="70" y="32.5" width="10" height="15" as="geometry">
              <mxPoint x="6" y="-7" as="offset" />
            </mxGeometry>
          </mxCell>
        </object>
        <mxCell id="8vYfKD7r18sQojz9sVD8-125" style="edgeStyle=orthogonalEdgeStyle;rounded=0;orthogonalLoop=1;jettySize=auto;html=1;exitX=1;exitY=0.5;exitDx=0;exitDy=0;entryX=0;entryY=0.5;entryDx=0;entryDy=0;" edge="1" parent="8vYfKD7r18sQojz9sVD8-84" source="8vYfKD7r18sQojz9sVD8-124" target="8vYfKD7r18sQojz9sVD8-118">
          <mxGeometry relative="1" as="geometry" />
        </mxCell>
        <object label="%value%" placeholders="1" value="66.35" block_name="ti" class_name="ConstantBlock" id="8vYfKD7r18sQojz9sVD8-126">
          <mxCell style="ellipse;whiteSpace=wrap;html=1;comic=0;fillColor=#ffffff;fontSize=24;align=center;allowArrows=0;connectable=0;container=1;collapsible=0;recursiveResize=1;direction=west;resizable=0;metaEdit=1;" vertex="1" parent="8vYfKD7r18sQojz9sVD8-84">
            <mxGeometry x="140" y="370" width="80" height="80" as="geometry" />
          </mxCell>
        </object>
        <object label="%name%" placeholders="1" name="OUT1" class_name="OutputPortBlock" id="8vYfKD7r18sQojz9sVD8-127">
          <mxCell style="triangle;fillColor=#ffffff;fontSize=14;points=[[1,0.5]];allowArrows=0;verticalAlign=middle;horizontal=1;spacingTop=0;align=left;spacingLeft=4;spacingRight=0;html=1;comic=0;treeFolding=0;treeMoving=0;movable=1;resizable=0;rotatable=1;deletable=1;editable=1;connectable=1;movableLabel=1;spacing=2;aspect=fixed;metaEdit=1;" vertex="1" parent="8vYfKD7r18sQojz9sVD8-126">
            <mxGeometry x="70" y="32.5" width="10" height="15" as="geometry">
              <mxPoint x="6" y="-7" as="offset" />
            </mxGeometry>
          </mxCell>
        </object>
        <mxCell id="8vYfKD7r18sQojz9sVD8-128" style="edgeStyle=orthogonalEdgeStyle;rounded=0;orthogonalLoop=1;jettySize=auto;html=1;exitX=1;exitY=0.5;exitDx=0;exitDy=0;entryX=0;entryY=0.5;entryDx=0;entryDy=0;" edge="1" parent="8vYfKD7r18sQojz9sVD8-84" source="8vYfKD7r18sQojz9sVD8-103" target="8vYfKD7r18sQojz9sVD8-121">
          <mxGeometry relative="1" as="geometry" />
        </mxCell>
        <mxCell id="8vYfKD7r18sQojz9sVD8-129" style="edgeStyle=orthogonalEdgeStyle;rounded=0;orthogonalLoop=1;jettySize=auto;html=1;exitX=1;exitY=0.5;exitDx=0;exitDy=0;entryX=0;entryY=0.5;entryDx=0;entryDy=0;" edge="1" parent="8vYfKD7r18sQojz9sVD8-84" source="8vYfKD7r18sQojz9sVD8-127" target="8vYfKD7r18sQojz9sVD8-122">
          <mxGeometry relative="1" as="geometry" />
        </mxCell>
        <mxCell id="8vYfKD7r18sQojz9sVD8-132" style="edgeStyle=orthogonalEdgeStyle;rounded=0;orthogonalLoop=1;jettySize=auto;html=1;exitX=1;exitY=0.5;exitDx=0;exitDy=0;entryX=0;entryY=0.5;entryDx=0;entryDy=0;" edge="1" parent="8vYfKD7r18sQojz9sVD8-84" source="8vYfKD7r18sQojz9sVD8-120" target="8vYfKD7r18sQojz9sVD8-92">
          <mxGeometry relative="1" as="geometry">
            <Array as="points">
              <mxPoint x="500" y="330" />
              <mxPoint x="500" y="220" />
            </Array>
          </mxGeometry>
        </mxCell>
        <object label="%name%" placeholders="1" name="OUT1" class_name="OutputPortBlock" id="8vYfKD7r18sQojz9sVD8-133">
          <mxCell style="triangle;fillColor=#ffffff;fontSize=14;points=[[0,0.5],[1,0.5]];allowArrows=0;verticalAlign=middle;horizontal=1;spacingTop=0;align=left;spacingLeft=4;spacingRight=0;html=1;comic=0;treeFolding=0;treeMoving=0;movable=1;resizable=0;rotatable=1;deletable=1;editable=1;connectable=1;movableLabel=1;spacing=2;aspect=fixed;metaEdit=1;" vertex="1" parent="8vYfKD7r18sQojz9sVD8-84">
            <mxGeometry x="710" y="255" width="10" height="15" as="geometry">
              <mxPoint x="5" y="-7" as="offset" />
            </mxGeometry>
          </mxCell>
        </object>
        <mxCell id="8vYfKD7r18sQojz9sVD8-134" style="edgeStyle=orthogonalEdgeStyle;rounded=0;orthogonalLoop=1;jettySize=auto;html=1;exitX=1;exitY=0.5;exitDx=0;exitDy=0;entryX=0;entryY=0.5;entryDx=0;entryDy=0;" edge="1" parent="8vYfKD7r18sQojz9sVD8-84" source="8vYfKD7r18sQojz9sVD8-90" target="8vYfKD7r18sQojz9sVD8-133">
          <mxGeometry relative="1" as="geometry" />
        </mxCell>
        <object label="%value%" placeholders="1" value="0" block_name="" class_name="ConstantBlock" id="8vYfKD7r18sQojz9sVD8-136">
          <mxCell style="ellipse;whiteSpace=wrap;html=1;comic=0;fillColor=#ffffff;fontSize=24;align=center;allowArrows=0;connectable=0;container=1;collapsible=0;recursiveResize=1;direction=west;resizable=0;metaEdit=1;" vertex="1" parent="8vYfKD7r18sQojz9sVD8-84">
            <mxGeometry width="80" height="80" as="geometry" />
          </mxCell>
        </object>
        <object label="%name%" placeholders="1" name="OUT1" class_name="OutputPortBlock" id="8vYfKD7r18sQojz9sVD8-137">
          <mxCell style="triangle;fillColor=#ffffff;fontSize=14;points=[[1,0.5]];allowArrows=0;verticalAlign=middle;horizontal=1;spacingTop=0;align=left;spacingLeft=4;spacingRight=0;html=1;comic=0;treeFolding=0;treeMoving=0;movable=1;resizable=0;rotatable=1;deletable=1;editable=1;connectable=1;movableLabel=1;spacing=2;aspect=fixed;metaEdit=1;" vertex="1" parent="8vYfKD7r18sQojz9sVD8-136">
            <mxGeometry x="70" y="32.5" width="10" height="15" as="geometry">
              <mxPoint x="6" y="-7" as="offset" />
            </mxGeometry>
          </mxCell>
        </object>
        <mxCell id="8vYfKD7r18sQojz9sVD8-139" style="edgeStyle=orthogonalEdgeStyle;rounded=0;orthogonalLoop=1;jettySize=auto;html=1;exitX=1;exitY=0.5;exitDx=0;exitDy=0;entryX=0;entryY=0.5;entryDx=0;entryDy=0;" edge="1" parent="8vYfKD7r18sQojz9sVD8-84" source="8vYfKD7r18sQojz9sVD8-137" target="8vYfKD7r18sQojz9sVD8-100">
          <mxGeometry relative="1" as="geometry" />
        </mxCell>
        <mxCell id="8vYfKD7r18sQojz9sVD8-140" style="edgeStyle=orthogonalEdgeStyle;rounded=0;orthogonalLoop=1;jettySize=auto;html=1;exitX=1;exitY=0.5;exitDx=0;exitDy=0;entryX=0;entryY=0.5;entryDx=0;entryDy=0;" edge="1" parent="8vYfKD7r18sQojz9sVD8-84" source="8vYfKD7r18sQojz9sVD8-142" target="8vYfKD7r18sQojz9sVD8-102">
          <mxGeometry relative="1" as="geometry" />
        </mxCell>
        <object label="%name%" placeholders="1" name="IN2" class_name="InputPortBlock" id="8vYfKD7r18sQojz9sVD8-142">
          <mxCell style="triangle;fontSize=14;points=[[0,0.5],[1,0.5]];allowArrows=0;verticalAlign=middle;horizontal=1;spacingTop=0;align=right;spacingLeft=0;spacingRight=8;html=1;comic=0;treeFolding=0;treeMoving=0;resizable=0;movableLabel=1;spacing=2;aspect=fixed;fillColor=#000000;metaEdit=1;" vertex="1" parent="8vYfKD7r18sQojz9sVD8-84">
            <mxGeometry x="20" y="355" width="10" height="15" as="geometry">
              <mxPoint x="-4" y="-8" as="offset" />
            </mxGeometry>
          </mxCell>
        </object>
        <mxCell id="8vYfKD7r18sQojz9sVD8-274" style="edgeStyle=orthogonalEdgeStyle;rounded=0;orthogonalLoop=1;jettySize=auto;html=1;exitX=1;exitY=0.5;exitDx=0;exitDy=0;entryX=0;entryY=0.5;entryDx=0;entryDy=0;" edge="1" parent="8vYfKD7r18sQojz9sVD8-84" source="8vYfKD7r18sQojz9sVD8-116" target="8vYfKD7r18sQojz9sVD8-91">
          <mxGeometry relative="1" as="geometry" />
        </mxCell>
        <object label="" placeholders="1" class_name="PlantBlock" id="8vYfKD7r18sQojz9sVD8-143">
          <mxCell style="rounded=0;whiteSpace=wrap;html=1;fillColor=#fff2cc;strokeColor=#d6b656;container=0;connectable=0;allowArrows=0;treeFolding=0;moveCells=0;treeMoving=0;comic=0;rotatable=0;expand=1;autosize=1;resizeWidth=1;resizeHeight=1;metaEdit=1;" vertex="1" parent="1">
            <mxGeometry x="60" y="-560" width="890" height="570" as="geometry">
              <mxRectangle x="40" y="400" width="50" height="40" as="alternateBounds" />
            </mxGeometry>
          </mxCell>
        </object>
        <object label="%class_name%" placeholders="1" id="8vYfKD7r18sQojz9sVD8-144">
          <mxCell style="rounded=0;whiteSpace=wrap;html=1;fillColor=#ffffff;fontSize=18;connectable=0;allowArrows=0;rotatable=0;cloneable=0;deletable=0;" vertex="1" parent="8vYfKD7r18sQojz9sVD8-143">
            <mxGeometry x="11.710526315789473" y="21.11111111111111" width="866.578947368421" height="42.22222222222222" as="geometry" />
          </mxCell>
        </object>
        <mxCell id="8vYfKD7r18sQojz9sVD8-145" value="" style="rounded=0;whiteSpace=wrap;html=1;fillColor=#ffffff;connectable=0;allowArrows=0;container=1;collapsible=0;portConstraintRotation=0;rotatable=0;cloneable=0;deletable=0;recursiveResize=0;" vertex="1" parent="8vYfKD7r18sQojz9sVD8-143">
          <mxGeometry x="11.710526315789473" y="73.88888888888889" width="866.578947368421" height="485.55555555555554" as="geometry">
            <mxRectangle x="10" y="70" width="50" height="40" as="alternateBounds" />
          </mxGeometry>
        </mxCell>
        <mxCell id="8vYfKD7r18sQojz9sVD8-146" style="edgeStyle=orthogonalEdgeStyle;rounded=0;orthogonalLoop=1;jettySize=auto;html=1;exitX=1;exitY=0.5;exitDx=0;exitDy=0;entryX=0;entryY=0.5;entryDx=0;entryDy=0;" edge="1" parent="8vYfKD7r18sQojz9sVD8-145" source="8vYfKD7r18sQojz9sVD8-147" target="8vYfKD7r18sQojz9sVD8-187">
          <mxGeometry relative="1" as="geometry" />
        </mxCell>
        <object label="%name%" placeholders="1" name="IN1" class_name="InputPortBlock" id="8vYfKD7r18sQojz9sVD8-147">
          <mxCell style="triangle;fontSize=14;points=[[0,0.5],[1,0.5]];allowArrows=0;verticalAlign=middle;horizontal=1;spacingTop=0;align=right;spacingLeft=0;spacingRight=8;html=1;comic=0;treeFolding=0;treeMoving=0;resizable=0;movableLabel=1;spacing=2;aspect=fixed;fillColor=#000000;metaEdit=1;" vertex="1" parent="8vYfKD7r18sQojz9sVD8-145">
            <mxGeometry x="628.29" y="303.17111111111114" width="10" height="15" as="geometry">
              <mxPoint x="-4" y="-8" as="offset" />
            </mxGeometry>
          </mxCell>
        </object>
        <object label="%value%" placeholders="1" value="0.5" block_name="half" class_name="ConstantBlock" id="8vYfKD7r18sQojz9sVD8-148">
          <mxCell style="ellipse;whiteSpace=wrap;html=1;comic=0;fillColor=#ffffff;fontSize=24;align=center;allowArrows=0;connectable=0;container=1;collapsible=0;recursiveResize=1;direction=west;resizable=0;metaEdit=1;" vertex="1" parent="8vYfKD7r18sQojz9sVD8-145">
            <mxGeometry width="80" height="80" as="geometry" />
          </mxCell>
        </object>
        <object label="%name%" placeholders="1" name="OUT1" class_name="OutputPortBlock" id="8vYfKD7r18sQojz9sVD8-149">
          <mxCell style="triangle;fillColor=#ffffff;fontSize=14;points=[[1,0.5]];allowArrows=0;verticalAlign=middle;horizontal=1;spacingTop=0;align=left;spacingLeft=4;spacingRight=0;html=1;comic=0;treeFolding=0;treeMoving=0;movable=1;resizable=0;rotatable=1;deletable=1;editable=1;connectable=1;movableLabel=1;spacing=2;aspect=fixed;metaEdit=1;" vertex="1" parent="8vYfKD7r18sQojz9sVD8-148">
            <mxGeometry x="70" y="32.5" width="10" height="15" as="geometry">
              <mxPoint x="6" y="-7" as="offset" />
            </mxGeometry>
          </mxCell>
        </object>
        <object label="%value%" placeholders="1" value="1.2" block_name="p" class_name="ConstantBlock" id="8vYfKD7r18sQojz9sVD8-150">
          <mxCell style="ellipse;whiteSpace=wrap;html=1;comic=0;fillColor=#ffffff;fontSize=24;align=center;allowArrows=0;connectable=0;container=1;collapsible=0;recursiveResize=1;direction=west;resizable=0;metaEdit=1;" vertex="1" parent="8vYfKD7r18sQojz9sVD8-145">
            <mxGeometry y="80.00444444444445" width="80" height="80" as="geometry" />
          </mxCell>
        </object>
        <object label="%name%" placeholders="1" name="OUT1" class_name="OutputPortBlock" id="8vYfKD7r18sQojz9sVD8-151">
          <mxCell style="triangle;fillColor=#ffffff;fontSize=14;points=[[1,0.5]];allowArrows=0;verticalAlign=middle;horizontal=1;spacingTop=0;align=left;spacingLeft=4;spacingRight=0;html=1;comic=0;treeFolding=0;treeMoving=0;movable=1;resizable=0;rotatable=1;deletable=1;editable=1;connectable=1;movableLabel=1;spacing=2;aspect=fixed;metaEdit=1;" vertex="1" parent="8vYfKD7r18sQojz9sVD8-150">
            <mxGeometry x="70" y="32.5" width="10" height="15" as="geometry">
              <mxPoint x="6" y="-7" as="offset" />
            </mxGeometry>
          </mxCell>
        </object>
        <object label="%value%" placeholders="1" value="0.6" block_name="Cd" class_name="ConstantBlock" id="8vYfKD7r18sQojz9sVD8-152">
          <mxCell style="ellipse;whiteSpace=wrap;html=1;comic=0;fillColor=#ffffff;fontSize=24;align=center;allowArrows=0;connectable=0;container=1;collapsible=0;recursiveResize=1;direction=west;resizable=0;metaEdit=1;" vertex="1" parent="8vYfKD7r18sQojz9sVD8-145">
            <mxGeometry y="160.6688888888889" width="80" height="80" as="geometry" />
          </mxCell>
        </object>
        <object label="%name%" placeholders="1" name="OUT1" class_name="OutputPortBlock" id="8vYfKD7r18sQojz9sVD8-153">
          <mxCell style="triangle;fillColor=#ffffff;fontSize=14;points=[[1,0.5]];allowArrows=0;verticalAlign=middle;horizontal=1;spacingTop=0;align=left;spacingLeft=4;spacingRight=0;html=1;comic=0;treeFolding=0;treeMoving=0;movable=1;resizable=0;rotatable=1;deletable=1;editable=1;connectable=1;movableLabel=1;spacing=2;aspect=fixed;metaEdit=1;" vertex="1" parent="8vYfKD7r18sQojz9sVD8-152">
            <mxGeometry x="70" y="32.5" width="10" height="15" as="geometry">
              <mxPoint x="6" y="-7" as="offset" />
            </mxGeometry>
          </mxCell>
        </object>
        <object label="%value%" placeholders="1" value="9.12" block_name="A" class_name="ConstantBlock" id="8vYfKD7r18sQojz9sVD8-154">
          <mxCell style="ellipse;whiteSpace=wrap;html=1;comic=0;fillColor=#ffffff;fontSize=24;align=center;allowArrows=0;connectable=0;container=1;collapsible=0;recursiveResize=1;direction=west;resizable=0;metaEdit=1;" vertex="1" parent="8vYfKD7r18sQojz9sVD8-145">
            <mxGeometry y="248.05333333333334" width="80" height="80" as="geometry" />
          </mxCell>
        </object>
        <object label="%name%" placeholders="1" name="OUT1" class_name="OutputPortBlock" id="8vYfKD7r18sQojz9sVD8-155">
          <mxCell style="triangle;fillColor=#ffffff;fontSize=14;points=[[1,0.5]];allowArrows=0;verticalAlign=middle;horizontal=1;spacingTop=0;align=left;spacingLeft=4;spacingRight=0;html=1;comic=0;treeFolding=0;treeMoving=0;movable=1;resizable=0;rotatable=1;deletable=1;editable=1;connectable=1;movableLabel=1;spacing=2;aspect=fixed;metaEdit=1;" vertex="1" parent="8vYfKD7r18sQojz9sVD8-154">
            <mxGeometry x="70" y="32.5" width="10" height="15" as="geometry">
              <mxPoint x="6" y="-7" as="offset" />
            </mxGeometry>
          </mxCell>
        </object>
        <object label="%symbol%" placeholders="1" symbol="&amp;prod;" class_name="ProductBlock" block_name="" id="8vYfKD7r18sQojz9sVD8-156">
          <mxCell style="whiteSpace=wrap;html=1;aspect=fixed;comic=0;fillColor=#FFFFFF;fontSize=36;align=center;resizable=0;container=1;collapsible=0;points=[];allowArrows=0;spacingTop=-6;metaEdit=1;connectable=0;" vertex="1" parent="8vYfKD7r18sQojz9sVD8-145">
            <mxGeometry x="158.28842105263158" y="42.22222222222222" width="80" height="80" as="geometry" />
          </mxCell>
        </object>
        <object label="%name%" placeholders="1" name="OUT1" class_name="OutputPortBlock" id="8vYfKD7r18sQojz9sVD8-157">
          <mxCell style="triangle;fillColor=#ffffff;fontSize=14;points=[[1,0.5]];allowArrows=0;verticalAlign=middle;horizontal=1;spacingTop=0;align=left;spacingLeft=4;spacingRight=0;html=1;comic=0;treeFolding=0;treeMoving=0;movable=1;resizable=0;rotatable=1;deletable=1;editable=1;connectable=1;movableLabel=1;spacing=2;aspect=fixed;metaEdit=1;" vertex="1" parent="8vYfKD7r18sQojz9sVD8-156">
            <mxGeometry x="70" y="32.5" width="10" height="15" as="geometry">
              <mxPoint x="5" y="-7" as="offset" />
            </mxGeometry>
          </mxCell>
        </object>
        <object label="%name%" placeholders="1" name="IN1" class_name="InputPortBlock" id="8vYfKD7r18sQojz9sVD8-158">
          <mxCell style="triangle;fontSize=14;points=[[0,0.5]];allowArrows=0;verticalAlign=middle;horizontal=1;spacingTop=0;align=right;spacingLeft=0;spacingRight=8;html=1;comic=0;treeFolding=0;treeMoving=0;resizable=0;movableLabel=1;spacing=2;aspect=fixed;fillColor=#000000;metaEdit=1;" vertex="1" parent="8vYfKD7r18sQojz9sVD8-156">
            <mxGeometry y="17.5" width="10" height="15" as="geometry">
              <mxPoint x="-4" y="-8" as="offset" />
            </mxGeometry>
          </mxCell>
        </object>
        <object label="%name%" placeholders="1" name="IN2" class_name="InputPortBlock" id="8vYfKD7r18sQojz9sVD8-159">
          <mxCell style="triangle;fontSize=14;points=[[0,0.5]];allowArrows=0;verticalAlign=middle;horizontal=1;spacingTop=0;align=right;spacingLeft=0;spacingRight=8;html=1;comic=0;treeFolding=0;treeMoving=0;resizable=0;movableLabel=1;spacing=2;aspect=fixed;fillColor=#000000;metaEdit=1;" vertex="1" parent="8vYfKD7r18sQojz9sVD8-156">
            <mxGeometry y="47.5" width="10" height="15" as="geometry">
              <mxPoint x="-4" y="-8" as="offset" />
            </mxGeometry>
          </mxCell>
        </object>
        <object label="%symbol%" placeholders="1" symbol="&amp;prod;" class_name="ProductBlock" block_name="" id="8vYfKD7r18sQojz9sVD8-160">
          <mxCell style="whiteSpace=wrap;html=1;aspect=fixed;comic=0;fillColor=#FFFFFF;fontSize=36;align=center;resizable=0;container=1;collapsible=0;points=[];allowArrows=0;spacingTop=-6;metaEdit=1;connectable=0;" vertex="1" parent="8vYfKD7r18sQojz9sVD8-145">
            <mxGeometry x="158.28842105263158" y="211.11111111111111" width="80" height="80" as="geometry" />
          </mxCell>
        </object>
        <object label="%name%" placeholders="1" name="OUT1" class_name="OutputPortBlock" id="8vYfKD7r18sQojz9sVD8-161">
          <mxCell style="triangle;fillColor=#ffffff;fontSize=14;points=[[1,0.5]];allowArrows=0;verticalAlign=middle;horizontal=1;spacingTop=0;align=left;spacingLeft=4;spacingRight=0;html=1;comic=0;treeFolding=0;treeMoving=0;movable=1;resizable=0;rotatable=1;deletable=1;editable=1;connectable=1;movableLabel=1;spacing=2;aspect=fixed;metaEdit=1;" vertex="1" parent="8vYfKD7r18sQojz9sVD8-160">
            <mxGeometry x="70" y="32.5" width="10" height="15" as="geometry">
              <mxPoint x="5" y="-7" as="offset" />
            </mxGeometry>
          </mxCell>
        </object>
        <object label="%name%" placeholders="1" name="IN1" class_name="InputPortBlock" id="8vYfKD7r18sQojz9sVD8-162">
          <mxCell style="triangle;fontSize=14;points=[[0,0.5]];allowArrows=0;verticalAlign=middle;horizontal=1;spacingTop=0;align=right;spacingLeft=0;spacingRight=8;html=1;comic=0;treeFolding=0;treeMoving=0;resizable=0;movableLabel=1;spacing=2;aspect=fixed;fillColor=#000000;metaEdit=1;" vertex="1" parent="8vYfKD7r18sQojz9sVD8-160">
            <mxGeometry y="17.5" width="10" height="15" as="geometry">
              <mxPoint x="-4" y="-8" as="offset" />
            </mxGeometry>
          </mxCell>
        </object>
        <object label="%name%" placeholders="1" name="IN2" class_name="InputPortBlock" id="8vYfKD7r18sQojz9sVD8-163">
          <mxCell style="triangle;fontSize=14;points=[[0,0.5]];allowArrows=0;verticalAlign=middle;horizontal=1;spacingTop=0;align=right;spacingLeft=0;spacingRight=8;html=1;comic=0;treeFolding=0;treeMoving=0;resizable=0;movableLabel=1;spacing=2;aspect=fixed;fillColor=#000000;metaEdit=1;" vertex="1" parent="8vYfKD7r18sQojz9sVD8-160">
            <mxGeometry y="47.5" width="10" height="15" as="geometry">
              <mxPoint x="-4" y="-8" as="offset" />
            </mxGeometry>
          </mxCell>
        </object>
        <mxCell id="8vYfKD7r18sQojz9sVD8-164" style="edgeStyle=orthogonalEdgeStyle;rounded=0;orthogonalLoop=1;jettySize=auto;html=1;exitX=1;exitY=0.5;exitDx=0;exitDy=0;entryX=0;entryY=0.5;entryDx=0;entryDy=0;" edge="1" parent="8vYfKD7r18sQojz9sVD8-145" source="8vYfKD7r18sQojz9sVD8-149" target="8vYfKD7r18sQojz9sVD8-158">
          <mxGeometry relative="1" as="geometry" />
        </mxCell>
        <mxCell id="8vYfKD7r18sQojz9sVD8-165" style="edgeStyle=orthogonalEdgeStyle;rounded=0;orthogonalLoop=1;jettySize=auto;html=1;exitX=1;exitY=0.5;exitDx=0;exitDy=0;entryX=0;entryY=0.5;entryDx=0;entryDy=0;" edge="1" parent="8vYfKD7r18sQojz9sVD8-145" source="8vYfKD7r18sQojz9sVD8-151" target="8vYfKD7r18sQojz9sVD8-159">
          <mxGeometry relative="1" as="geometry" />
        </mxCell>
        <mxCell id="8vYfKD7r18sQojz9sVD8-166" style="edgeStyle=orthogonalEdgeStyle;rounded=0;orthogonalLoop=1;jettySize=auto;html=1;exitX=1;exitY=0.5;exitDx=0;exitDy=0;entryX=0;entryY=0.5;entryDx=0;entryDy=0;" edge="1" parent="8vYfKD7r18sQojz9sVD8-145" source="8vYfKD7r18sQojz9sVD8-153" target="8vYfKD7r18sQojz9sVD8-162">
          <mxGeometry relative="1" as="geometry" />
        </mxCell>
        <mxCell id="8vYfKD7r18sQojz9sVD8-167" style="edgeStyle=orthogonalEdgeStyle;rounded=0;orthogonalLoop=1;jettySize=auto;html=1;exitX=1;exitY=0.5;exitDx=0;exitDy=0;entryX=0;entryY=0.5;entryDx=0;entryDy=0;" edge="1" parent="8vYfKD7r18sQojz9sVD8-145" source="8vYfKD7r18sQojz9sVD8-155" target="8vYfKD7r18sQojz9sVD8-163">
          <mxGeometry relative="1" as="geometry" />
        </mxCell>
        <object label="%symbol%" placeholders="1" symbol="&amp;prod;" class_name="ProductBlock" block_name="" id="8vYfKD7r18sQojz9sVD8-168">
          <mxCell style="whiteSpace=wrap;html=1;aspect=fixed;comic=0;fillColor=#FFFFFF;fontSize=36;align=center;resizable=0;container=1;collapsible=0;points=[];allowArrows=0;spacingTop=-6;metaEdit=1;connectable=0;" vertex="1" parent="8vYfKD7r18sQojz9sVD8-145">
            <mxGeometry x="308.29105263157896" y="196.33333333333334" width="80" height="80" as="geometry" />
          </mxCell>
        </object>
        <object label="%name%" placeholders="1" name="OUT1" class_name="OutputPortBlock" id="8vYfKD7r18sQojz9sVD8-169">
          <mxCell style="triangle;fillColor=#ffffff;fontSize=14;points=[[1,0.5]];allowArrows=0;verticalAlign=middle;horizontal=1;spacingTop=0;align=left;spacingLeft=4;spacingRight=0;html=1;comic=0;treeFolding=0;treeMoving=0;movable=1;resizable=0;rotatable=1;deletable=1;editable=1;connectable=1;movableLabel=1;spacing=2;aspect=fixed;metaEdit=1;" vertex="1" parent="8vYfKD7r18sQojz9sVD8-168">
            <mxGeometry x="70" y="32.5" width="10" height="15" as="geometry">
              <mxPoint x="5" y="-7" as="offset" />
            </mxGeometry>
          </mxCell>
        </object>
        <object label="%name%" placeholders="1" name="IN1" class_name="InputPortBlock" id="8vYfKD7r18sQojz9sVD8-170">
          <mxCell style="triangle;fontSize=14;points=[[0,0.5]];allowArrows=0;verticalAlign=middle;horizontal=1;spacingTop=0;align=right;spacingLeft=0;spacingRight=8;html=1;comic=0;treeFolding=0;treeMoving=0;resizable=0;movableLabel=1;spacing=2;aspect=fixed;fillColor=#000000;metaEdit=1;" vertex="1" parent="8vYfKD7r18sQojz9sVD8-168">
            <mxGeometry y="17.5" width="10" height="15" as="geometry">
              <mxPoint x="-4" y="-8" as="offset" />
            </mxGeometry>
          </mxCell>
        </object>
        <object label="%name%" placeholders="1" name="IN2" class_name="InputPortBlock" id="8vYfKD7r18sQojz9sVD8-171">
          <mxCell style="triangle;fontSize=14;points=[[0,0.5]];allowArrows=0;verticalAlign=middle;horizontal=1;spacingTop=0;align=right;spacingLeft=0;spacingRight=8;html=1;comic=0;treeFolding=0;treeMoving=0;resizable=0;movableLabel=1;spacing=2;aspect=fixed;fillColor=#000000;metaEdit=1;" vertex="1" parent="8vYfKD7r18sQojz9sVD8-168">
            <mxGeometry y="47.5" width="10" height="15" as="geometry">
              <mxPoint x="-4" y="-8" as="offset" />
            </mxGeometry>
          </mxCell>
        </object>
        <mxCell id="8vYfKD7r18sQojz9sVD8-172" style="edgeStyle=orthogonalEdgeStyle;rounded=0;orthogonalLoop=1;jettySize=auto;html=1;exitX=1;exitY=0.5;exitDx=0;exitDy=0;entryX=0;entryY=0.5;entryDx=0;entryDy=0;" edge="1" parent="8vYfKD7r18sQojz9sVD8-145" source="8vYfKD7r18sQojz9sVD8-157" target="8vYfKD7r18sQojz9sVD8-170">
          <mxGeometry relative="1" as="geometry" />
        </mxCell>
        <mxCell id="8vYfKD7r18sQojz9sVD8-173" style="edgeStyle=orthogonalEdgeStyle;rounded=0;orthogonalLoop=1;jettySize=auto;html=1;exitX=1;exitY=0.5;exitDx=0;exitDy=0;entryX=0;entryY=0.5;entryDx=0;entryDy=0;" edge="1" parent="8vYfKD7r18sQojz9sVD8-145" source="8vYfKD7r18sQojz9sVD8-161" target="8vYfKD7r18sQojz9sVD8-171">
          <mxGeometry relative="1" as="geometry" />
        </mxCell>
        <object label="%symbol%" placeholders="1" symbol="&amp;prod;" class_name="ProductBlock" block_name="" id="8vYfKD7r18sQojz9sVD8-174">
          <mxCell style="whiteSpace=wrap;html=1;aspect=fixed;comic=0;fillColor=#FFFFFF;fontSize=36;align=center;resizable=0;container=1;collapsible=0;points=[];allowArrows=0;spacingTop=-6;metaEdit=1;connectable=0;" vertex="1" parent="8vYfKD7r18sQojz9sVD8-145">
            <mxGeometry x="478.281052631579" y="346.1144444444445" width="80" height="80" as="geometry" />
          </mxCell>
        </object>
        <object label="%name%" placeholders="1" name="OUT1" class_name="OutputPortBlock" id="8vYfKD7r18sQojz9sVD8-175">
          <mxCell style="triangle;fillColor=#ffffff;fontSize=14;points=[[1,0.5]];allowArrows=0;verticalAlign=middle;horizontal=1;spacingTop=0;align=left;spacingLeft=4;spacingRight=0;html=1;comic=0;treeFolding=0;treeMoving=0;movable=1;resizable=0;rotatable=1;deletable=1;editable=1;connectable=1;movableLabel=1;spacing=2;aspect=fixed;metaEdit=1;" vertex="1" parent="8vYfKD7r18sQojz9sVD8-174">
            <mxGeometry x="70" y="32.5" width="10" height="15" as="geometry">
              <mxPoint x="5" y="-7" as="offset" />
            </mxGeometry>
          </mxCell>
        </object>
        <object label="%name%" placeholders="1" name="IN1" class_name="InputPortBlock" id="8vYfKD7r18sQojz9sVD8-176">
          <mxCell style="triangle;fontSize=14;points=[[0,0.5]];allowArrows=0;verticalAlign=middle;horizontal=1;spacingTop=0;align=right;spacingLeft=0;spacingRight=8;html=1;comic=0;treeFolding=0;treeMoving=0;resizable=0;movableLabel=1;spacing=2;aspect=fixed;fillColor=#000000;metaEdit=1;" vertex="1" parent="8vYfKD7r18sQojz9sVD8-174">
            <mxGeometry y="17.5" width="10" height="15" as="geometry">
              <mxPoint x="-4" y="-8" as="offset" />
            </mxGeometry>
          </mxCell>
        </object>
        <object label="%name%" placeholders="1" name="IN2" class_name="InputPortBlock" id="8vYfKD7r18sQojz9sVD8-177">
          <mxCell style="triangle;fontSize=14;points=[[0,0.5]];allowArrows=0;verticalAlign=middle;horizontal=1;spacingTop=0;align=right;spacingLeft=0;spacingRight=8;html=1;comic=0;treeFolding=0;treeMoving=0;resizable=0;movableLabel=1;spacing=2;aspect=fixed;fillColor=#000000;metaEdit=1;" vertex="1" parent="8vYfKD7r18sQojz9sVD8-174">
            <mxGeometry y="47.5" width="10" height="15" as="geometry">
              <mxPoint x="-4" y="-8" as="offset" />
            </mxGeometry>
          </mxCell>
        </object>
        <object label="%symbol%" placeholders="1" symbol="&amp;prod;" class_name="ProductBlock" block_name="" id="8vYfKD7r18sQojz9sVD8-178">
          <mxCell style="whiteSpace=wrap;html=1;aspect=fixed;comic=0;fillColor=#FFFFFF;fontSize=36;align=center;resizable=0;container=1;collapsible=0;points=[];allowArrows=0;spacingTop=-6;metaEdit=1;connectable=0;" vertex="1" parent="8vYfKD7r18sQojz9sVD8-145">
            <mxGeometry x="458.2852631578947" y="211.11111111111111" width="80" height="80" as="geometry" />
          </mxCell>
        </object>
        <object label="%name%" placeholders="1" name="OUT1" class_name="OutputPortBlock" id="8vYfKD7r18sQojz9sVD8-179">
          <mxCell style="triangle;fillColor=#ffffff;fontSize=14;points=[[1,0.5]];allowArrows=0;verticalAlign=middle;horizontal=1;spacingTop=0;align=left;spacingLeft=4;spacingRight=0;html=1;comic=0;treeFolding=0;treeMoving=0;movable=1;resizable=0;rotatable=1;deletable=1;editable=1;connectable=1;movableLabel=1;spacing=2;aspect=fixed;metaEdit=1;" vertex="1" parent="8vYfKD7r18sQojz9sVD8-178">
            <mxGeometry x="70" y="32.5" width="10" height="15" as="geometry">
              <mxPoint x="5" y="-7" as="offset" />
            </mxGeometry>
          </mxCell>
        </object>
        <object label="%name%" placeholders="1" name="IN1" class_name="InputPortBlock" id="8vYfKD7r18sQojz9sVD8-180">
          <mxCell style="triangle;fontSize=14;points=[[0,0.5]];allowArrows=0;verticalAlign=middle;horizontal=1;spacingTop=0;align=right;spacingLeft=0;spacingRight=8;html=1;comic=0;treeFolding=0;treeMoving=0;resizable=0;movableLabel=1;spacing=2;aspect=fixed;fillColor=#000000;metaEdit=1;" vertex="1" parent="8vYfKD7r18sQojz9sVD8-178">
            <mxGeometry y="17.5" width="10" height="15" as="geometry">
              <mxPoint x="-4" y="-8" as="offset" />
            </mxGeometry>
          </mxCell>
        </object>
        <object label="%name%" placeholders="1" name="IN2" class_name="InputPortBlock" id="8vYfKD7r18sQojz9sVD8-181">
          <mxCell style="triangle;fontSize=14;points=[[0,0.5]];allowArrows=0;verticalAlign=middle;horizontal=1;spacingTop=0;align=right;spacingLeft=0;spacingRight=8;html=1;comic=0;treeFolding=0;treeMoving=0;resizable=0;movableLabel=1;spacing=2;aspect=fixed;fillColor=#000000;metaEdit=1;" vertex="1" parent="8vYfKD7r18sQojz9sVD8-178">
            <mxGeometry y="47.5" width="10" height="15" as="geometry">
              <mxPoint x="-4" y="-8" as="offset" />
            </mxGeometry>
          </mxCell>
        </object>
        <mxCell id="8vYfKD7r18sQojz9sVD8-182" style="edgeStyle=orthogonalEdgeStyle;rounded=0;orthogonalLoop=1;jettySize=auto;html=1;exitX=1;exitY=0.5;exitDx=0;exitDy=0;entryX=0;entryY=0.5;entryDx=0;entryDy=0;" edge="1" parent="8vYfKD7r18sQojz9sVD8-145" source="8vYfKD7r18sQojz9sVD8-169" target="8vYfKD7r18sQojz9sVD8-180">
          <mxGeometry relative="1" as="geometry" />
        </mxCell>
        <mxCell id="8vYfKD7r18sQojz9sVD8-183" style="edgeStyle=orthogonalEdgeStyle;rounded=0;orthogonalLoop=1;jettySize=auto;html=1;exitX=1;exitY=0.5;exitDx=0;exitDy=0;entryX=0;entryY=0.5;entryDx=0;entryDy=0;" edge="1" parent="8vYfKD7r18sQojz9sVD8-145" source="8vYfKD7r18sQojz9sVD8-175" target="8vYfKD7r18sQojz9sVD8-181">
          <mxGeometry relative="1" as="geometry">
            <Array as="points">
              <mxPoint x="598" y="386" />
              <mxPoint x="598" y="326" />
              <mxPoint x="428" y="326" />
              <mxPoint x="428" y="266" />
            </Array>
          </mxGeometry>
        </mxCell>
        <object label="%symbol%" placeholders="1" symbol="&amp;sum;" class_name="AdderBlock" block_name="" id="8vYfKD7r18sQojz9sVD8-184">
          <mxCell style="whiteSpace=wrap;html=1;aspect=fixed;comic=0;fillColor=#FFFFFF;fontSize=36;align=center;resizable=0;container=1;collapsible=0;points=[];allowArrows=0;spacingTop=-6;metaEdit=1;connectable=0;" vertex="1" parent="8vYfKD7r18sQojz9sVD8-145">
            <mxGeometry x="698.2936842105262" y="255.66666666666669" width="80" height="80" as="geometry" />
          </mxCell>
        </object>
        <object label="%name%" placeholders="1" name="OUT1" class_name="OutputPortBlock" id="8vYfKD7r18sQojz9sVD8-185">
          <mxCell style="triangle;fillColor=#ffffff;fontSize=14;points=[[1,0.5]];allowArrows=0;verticalAlign=middle;horizontal=1;spacingTop=0;align=left;spacingLeft=4;spacingRight=0;html=1;comic=0;treeFolding=0;treeMoving=0;movable=1;resizable=0;rotatable=1;deletable=1;editable=1;connectable=1;movableLabel=1;spacing=2;aspect=fixed;metaEdit=1;" vertex="1" parent="8vYfKD7r18sQojz9sVD8-184">
            <mxGeometry x="70" y="32.5" width="10" height="15" as="geometry">
              <mxPoint x="5" y="-7" as="offset" />
            </mxGeometry>
          </mxCell>
        </object>
        <object label="%name%" placeholders="1" name="IN1" class_name="InputPortBlock" id="8vYfKD7r18sQojz9sVD8-186">
          <mxCell style="triangle;fontSize=14;points=[[0,0.5]];allowArrows=0;verticalAlign=middle;horizontal=1;spacingTop=0;align=right;spacingLeft=0;spacingRight=8;html=1;comic=0;treeFolding=0;treeMoving=0;resizable=0;movableLabel=1;spacing=2;aspect=fixed;fillColor=#000000;metaEdit=1;" vertex="1" parent="8vYfKD7r18sQojz9sVD8-184">
            <mxGeometry y="17.5" width="10" height="15" as="geometry">
              <mxPoint x="-4" y="-8" as="offset" />
            </mxGeometry>
          </mxCell>
        </object>
        <object label="%name%" placeholders="1" name="IN2" class_name="InputPortBlock" id="8vYfKD7r18sQojz9sVD8-187">
          <mxCell style="triangle;fontSize=14;points=[[0,0.5]];allowArrows=0;verticalAlign=middle;horizontal=1;spacingTop=0;align=right;spacingLeft=0;spacingRight=8;html=1;comic=0;treeFolding=0;treeMoving=0;resizable=0;movableLabel=1;spacing=2;aspect=fixed;fillColor=#000000;metaEdit=1;" vertex="1" parent="8vYfKD7r18sQojz9sVD8-184">
            <mxGeometry y="47.5" width="10" height="15" as="geometry">
              <mxPoint x="-4" y="-8" as="offset" />
            </mxGeometry>
          </mxCell>
        </object>
        <object label="%symbol%" placeholders="1" symbol="&amp;#8543;" class_name="InverterBlock" block_name="" id="8vYfKD7r18sQojz9sVD8-188">
          <mxCell style="whiteSpace=wrap;html=1;aspect=fixed;comic=0;fillColor=#FFFFFF;fontSize=36;align=center;resizable=0;container=1;collapsible=0;points=[];allowArrows=0;metaEdit=1;connectable=0;" vertex="1" parent="8vYfKD7r18sQojz9sVD8-145">
            <mxGeometry x="638.2894736842105" y="42.22222222222222" width="80" height="80" as="geometry" />
          </mxCell>
        </object>
        <object label="%name%" placeholders="1" name="OUT1" class_name="OutputPortBlock" id="8vYfKD7r18sQojz9sVD8-189">
          <mxCell style="triangle;fillColor=#ffffff;fontSize=14;points=[[1,0.5]];allowArrows=0;verticalAlign=middle;horizontal=1;spacingTop=0;align=left;spacingLeft=4;spacingRight=0;html=1;comic=0;treeFolding=0;treeMoving=0;movable=1;resizable=0;rotatable=1;deletable=1;editable=1;connectable=1;movableLabel=1;spacing=2;aspect=fixed;metaEdit=1;" vertex="1" parent="8vYfKD7r18sQojz9sVD8-188">
            <mxGeometry x="70" y="32.5" width="10" height="15" as="geometry">
              <mxPoint x="5" y="-7" as="offset" />
            </mxGeometry>
          </mxCell>
        </object>
        <object label="%name%" placeholders="1" name="IN1" class_name="InputPortBlock" id="8vYfKD7r18sQojz9sVD8-190">
          <mxCell style="triangle;fontSize=14;points=[[0,0.5]];allowArrows=0;verticalAlign=middle;horizontal=1;spacingTop=0;align=right;spacingLeft=0;spacingRight=8;html=1;comic=0;treeFolding=0;treeMoving=0;resizable=0;movableLabel=1;spacing=2;aspect=fixed;fillColor=#000000;metaEdit=1;" vertex="1" parent="8vYfKD7r18sQojz9sVD8-188">
            <mxGeometry y="32.5" width="10" height="15" as="geometry">
              <mxPoint x="-4" y="-8" as="offset" />
            </mxGeometry>
          </mxCell>
        </object>
        <object label="%value%" placeholders="1" value="77" block_name="m_psgr" class_name="ConstantBlock" id="8vYfKD7r18sQojz9sVD8-191">
          <mxCell style="ellipse;whiteSpace=wrap;html=1;comic=0;fillColor=#ffffff;fontSize=24;align=center;allowArrows=0;connectable=0;container=1;collapsible=0;recursiveResize=1;direction=west;resizable=0;metaEdit=1;" vertex="1" parent="8vYfKD7r18sQojz9sVD8-145">
            <mxGeometry x="318.2894736842105" y="10.555555555555555" width="80" height="80" as="geometry" />
          </mxCell>
        </object>
        <object label="%name%" placeholders="1" name="OUT1" class_name="OutputPortBlock" id="8vYfKD7r18sQojz9sVD8-192">
          <mxCell style="triangle;fillColor=#ffffff;fontSize=14;points=[[1,0.5]];allowArrows=0;verticalAlign=middle;horizontal=1;spacingTop=0;align=left;spacingLeft=4;spacingRight=0;html=1;comic=0;treeFolding=0;treeMoving=0;movable=1;resizable=0;rotatable=1;deletable=1;editable=1;connectable=1;movableLabel=1;spacing=2;aspect=fixed;metaEdit=1;" vertex="1" parent="8vYfKD7r18sQojz9sVD8-191">
            <mxGeometry x="70" y="32.5" width="10" height="15" as="geometry">
              <mxPoint x="6" y="-7" as="offset" />
            </mxGeometry>
          </mxCell>
        </object>
        <object label="%value%" placeholders="1" value="2376" block_name="m_trolley" class_name="ConstantBlock" id="8vYfKD7r18sQojz9sVD8-193">
          <mxCell style="ellipse;whiteSpace=wrap;html=1;comic=0;fillColor=#ffffff;fontSize=24;align=center;allowArrows=0;connectable=0;container=1;collapsible=0;recursiveResize=1;direction=west;resizable=0;metaEdit=1;" vertex="1" parent="8vYfKD7r18sQojz9sVD8-145">
            <mxGeometry x="318.2894736842105" y="95" width="80" height="80" as="geometry" />
          </mxCell>
        </object>
        <object label="%name%" placeholders="1" name="OUT1" class_name="OutputPortBlock" id="8vYfKD7r18sQojz9sVD8-194">
          <mxCell style="triangle;fillColor=#ffffff;fontSize=14;points=[[1,0.5]];allowArrows=0;verticalAlign=middle;horizontal=1;spacingTop=0;align=left;spacingLeft=4;spacingRight=0;html=1;comic=0;treeFolding=0;treeMoving=0;movable=1;resizable=0;rotatable=1;deletable=1;editable=1;connectable=1;movableLabel=1;spacing=2;aspect=fixed;metaEdit=1;" vertex="1" parent="8vYfKD7r18sQojz9sVD8-193">
            <mxGeometry x="70" y="32.5" width="10" height="15" as="geometry">
              <mxPoint x="6" y="-7" as="offset" />
            </mxGeometry>
          </mxCell>
        </object>
        <object label="%symbol%" placeholders="1" symbol="&amp;sum;" class_name="AdderBlock" block_name="" id="8vYfKD7r18sQojz9sVD8-195">
          <mxCell style="whiteSpace=wrap;html=1;aspect=fixed;comic=0;fillColor=#FFFFFF;fontSize=36;align=center;resizable=0;container=1;collapsible=0;points=[];allowArrows=0;spacingTop=-6;metaEdit=1;connectable=0;" vertex="1" parent="8vYfKD7r18sQojz9sVD8-145">
            <mxGeometry x="478.2894736842105" y="42.22222222222222" width="80" height="80" as="geometry" />
          </mxCell>
        </object>
        <object label="%name%" placeholders="1" name="OUT1" class_name="OutputPortBlock" id="8vYfKD7r18sQojz9sVD8-196">
          <mxCell style="triangle;fillColor=#ffffff;fontSize=14;points=[[1,0.5]];allowArrows=0;verticalAlign=middle;horizontal=1;spacingTop=0;align=left;spacingLeft=4;spacingRight=0;html=1;comic=0;treeFolding=0;treeMoving=0;movable=1;resizable=0;rotatable=1;deletable=1;editable=1;connectable=1;movableLabel=1;spacing=2;aspect=fixed;metaEdit=1;" vertex="1" parent="8vYfKD7r18sQojz9sVD8-195">
            <mxGeometry x="70" y="32.5" width="10" height="15" as="geometry">
              <mxPoint x="5" y="-7" as="offset" />
            </mxGeometry>
          </mxCell>
        </object>
        <object label="%name%" placeholders="1" name="IN1" class_name="InputPortBlock" id="8vYfKD7r18sQojz9sVD8-197">
          <mxCell style="triangle;fontSize=14;points=[[0,0.5]];allowArrows=0;verticalAlign=middle;horizontal=1;spacingTop=0;align=right;spacingLeft=0;spacingRight=8;html=1;comic=0;treeFolding=0;treeMoving=0;resizable=0;movableLabel=1;spacing=2;aspect=fixed;fillColor=#000000;metaEdit=1;" vertex="1" parent="8vYfKD7r18sQojz9sVD8-195">
            <mxGeometry y="17.5" width="10" height="15" as="geometry">
              <mxPoint x="-4" y="-8" as="offset" />
            </mxGeometry>
          </mxCell>
        </object>
        <object label="%name%" placeholders="1" name="IN2" class_name="InputPortBlock" id="8vYfKD7r18sQojz9sVD8-198">
          <mxCell style="triangle;fontSize=14;points=[[0,0.5]];allowArrows=0;verticalAlign=middle;horizontal=1;spacingTop=0;align=right;spacingLeft=0;spacingRight=8;html=1;comic=0;treeFolding=0;treeMoving=0;resizable=0;movableLabel=1;spacing=2;aspect=fixed;fillColor=#000000;metaEdit=1;" vertex="1" parent="8vYfKD7r18sQojz9sVD8-195">
            <mxGeometry y="47.5" width="10" height="15" as="geometry">
              <mxPoint x="-4" y="-8" as="offset" />
            </mxGeometry>
          </mxCell>
        </object>
        <mxCell id="8vYfKD7r18sQojz9sVD8-199" style="edgeStyle=orthogonalEdgeStyle;rounded=0;orthogonalLoop=1;jettySize=auto;html=1;exitX=1;exitY=0.5;exitDx=0;exitDy=0;entryX=0;entryY=0.5;entryDx=0;entryDy=0;" edge="1" parent="8vYfKD7r18sQojz9sVD8-145" source="8vYfKD7r18sQojz9sVD8-192" target="8vYfKD7r18sQojz9sVD8-197">
          <mxGeometry relative="1" as="geometry" />
        </mxCell>
        <mxCell id="8vYfKD7r18sQojz9sVD8-200" style="edgeStyle=orthogonalEdgeStyle;rounded=0;orthogonalLoop=1;jettySize=auto;html=1;exitX=1;exitY=0.5;exitDx=0;exitDy=0;entryX=0;entryY=0.5;entryDx=0;entryDy=0;" edge="1" parent="8vYfKD7r18sQojz9sVD8-145" source="8vYfKD7r18sQojz9sVD8-194" target="8vYfKD7r18sQojz9sVD8-198">
          <mxGeometry relative="1" as="geometry" />
        </mxCell>
        <mxCell id="8vYfKD7r18sQojz9sVD8-201" style="edgeStyle=orthogonalEdgeStyle;rounded=0;orthogonalLoop=1;jettySize=auto;html=1;exitX=1;exitY=0.5;exitDx=0;exitDy=0;entryX=0;entryY=0.5;entryDx=0;entryDy=0;" edge="1" parent="8vYfKD7r18sQojz9sVD8-145" source="8vYfKD7r18sQojz9sVD8-196" target="8vYfKD7r18sQojz9sVD8-190">
          <mxGeometry relative="1" as="geometry" />
        </mxCell>
        <object label="%symbol%" placeholders="1" symbol="&amp;prod;" class_name="ProductBlock" block_name="" id="8vYfKD7r18sQojz9sVD8-202">
          <mxCell style="whiteSpace=wrap;html=1;aspect=fixed;comic=0;fillColor=#FFFFFF;fontSize=36;align=center;resizable=0;container=1;collapsible=0;points=[];allowArrows=0;spacingTop=-6;metaEdit=1;connectable=0;" vertex="1" parent="8vYfKD7r18sQojz9sVD8-145">
            <mxGeometry x="748.2894736842105" y="140.38888888888889" width="80" height="80" as="geometry" />
          </mxCell>
        </object>
        <object label="%name%" placeholders="1" name="OUT1" class_name="OutputPortBlock" id="8vYfKD7r18sQojz9sVD8-203">
          <mxCell style="triangle;fillColor=#ffffff;fontSize=14;points=[[1,0.5]];allowArrows=0;verticalAlign=middle;horizontal=1;spacingTop=0;align=left;spacingLeft=4;spacingRight=0;html=1;comic=0;treeFolding=0;treeMoving=0;movable=1;resizable=0;rotatable=1;deletable=1;editable=1;connectable=1;movableLabel=1;spacing=2;aspect=fixed;metaEdit=1;" vertex="1" parent="8vYfKD7r18sQojz9sVD8-202">
            <mxGeometry x="70" y="32.5" width="10" height="15" as="geometry">
              <mxPoint x="5" y="-7" as="offset" />
            </mxGeometry>
          </mxCell>
        </object>
        <object label="%name%" placeholders="1" name="IN1" class_name="InputPortBlock" id="8vYfKD7r18sQojz9sVD8-204">
          <mxCell style="triangle;fontSize=14;points=[[0,0.5]];allowArrows=0;verticalAlign=middle;horizontal=1;spacingTop=0;align=right;spacingLeft=0;spacingRight=8;html=1;comic=0;treeFolding=0;treeMoving=0;resizable=0;movableLabel=1;spacing=2;aspect=fixed;fillColor=#000000;metaEdit=1;" vertex="1" parent="8vYfKD7r18sQojz9sVD8-202">
            <mxGeometry y="17.5" width="10" height="15" as="geometry">
              <mxPoint x="-4" y="-8" as="offset" />
            </mxGeometry>
          </mxCell>
        </object>
        <object label="%name%" placeholders="1" name="IN2" class_name="InputPortBlock" id="8vYfKD7r18sQojz9sVD8-205">
          <mxCell style="triangle;fontSize=14;points=[[0,0.5]];allowArrows=0;verticalAlign=middle;horizontal=1;spacingTop=0;align=right;spacingLeft=0;spacingRight=8;html=1;comic=0;treeFolding=0;treeMoving=0;resizable=0;movableLabel=1;spacing=2;aspect=fixed;fillColor=#000000;metaEdit=1;" vertex="1" parent="8vYfKD7r18sQojz9sVD8-202">
            <mxGeometry y="47.5" width="10" height="15" as="geometry">
              <mxPoint x="-4" y="-8" as="offset" />
            </mxGeometry>
          </mxCell>
        </object>
        <mxCell id="8vYfKD7r18sQojz9sVD8-206" style="edgeStyle=orthogonalEdgeStyle;rounded=0;orthogonalLoop=1;jettySize=auto;html=1;exitX=1;exitY=0.5;exitDx=0;exitDy=0;entryX=0;entryY=0.5;entryDx=0;entryDy=0;" edge="1" parent="8vYfKD7r18sQojz9sVD8-145" source="8vYfKD7r18sQojz9sVD8-185" target="8vYfKD7r18sQojz9sVD8-205">
          <mxGeometry relative="1" as="geometry">
            <Array as="points">
              <mxPoint x="818" y="296" />
              <mxPoint x="818" y="232" />
              <mxPoint x="718" y="232" />
              <mxPoint x="718" y="198" />
              <mxPoint x="748" y="198" />
            </Array>
          </mxGeometry>
        </mxCell>
        <mxCell id="8vYfKD7r18sQojz9sVD8-207" style="edgeStyle=orthogonalEdgeStyle;rounded=0;orthogonalLoop=1;jettySize=auto;html=1;exitX=1;exitY=0.5;exitDx=0;exitDy=0;entryX=0;entryY=0.5;entryDx=0;entryDy=0;" edge="1" parent="8vYfKD7r18sQojz9sVD8-145" source="8vYfKD7r18sQojz9sVD8-189" target="8vYfKD7r18sQojz9sVD8-204">
          <mxGeometry relative="1" as="geometry">
            <Array as="points">
              <mxPoint x="718" y="84" />
              <mxPoint x="738" y="84" />
              <mxPoint x="738" y="137" />
              <mxPoint x="708" y="137" />
              <mxPoint x="708" y="167" />
              <mxPoint x="748" y="167" />
            </Array>
          </mxGeometry>
        </mxCell>
        <object label="%symbol%" class_name="IntegratorBlock" block_name="" symbol="&amp;int;" placeholders="1" id="8vYfKD7r18sQojz9sVD8-208">
          <mxCell style="shape=stencil(7ZVNDoMgEIVPw95IF24b294DFSuRggGq7e3LjzYSS6NRdybGMM7jyzi8CQCmskINBnFUAXgBcZxE+qXDzg+RbHCu3LcWCYIyil1GKsFr3JFC9QTCKiyIMll4BdFZa8zzXcA054xpGuFMepKJEMS3kHakylBe3wV/suIfbVA3yBQ60f1UD3sevDUterkf7Fvy9iJd6lIqJWxEhftgEx972qncZCvuZticcomXbbWGC/jDd2XAciNRyQWeb8qSUOoGKVjxYeTDyOuOe6eDWd/AWXM3SOeOiYUGplAvbNrdfTbzAQ==);whiteSpace=wrap;html=1;aspect=fixed;resizable=0;container=1;collapsible=0;spacingLeft=5;connectable=0;allowArrows=0;fontSize=36;spacingTop=7;metaEdit=1;" vertex="1" parent="8vYfKD7r18sQojz9sVD8-145">
            <mxGeometry x="158.28947368421052" y="361.1144444444445" width="80" height="80" as="geometry" />
          </mxCell>
        </object>
        <object label="%name%" placeholders="1" name="IC" class_name="InputPortBlock" id="8vYfKD7r18sQojz9sVD8-209">
          <mxCell style="triangle;fontSize=14;points=[[0,0.5]];allowArrows=0;verticalAlign=middle;horizontal=1;spacingTop=0;align=right;spacingLeft=0;spacingRight=8;html=1;comic=0;treeFolding=0;treeMoving=0;resizable=0;movableLabel=1;spacing=2;aspect=fixed;fillColor=#000000;metaEdit=1;" vertex="1" parent="8vYfKD7r18sQojz9sVD8-208">
            <mxGeometry width="10" height="15" as="geometry">
              <mxPoint x="-4" y="-8" as="offset" />
            </mxGeometry>
          </mxCell>
        </object>
        <object label="%name%" placeholders="1" name="IN1" class_name="InputPortBlock" id="8vYfKD7r18sQojz9sVD8-210">
          <mxCell style="triangle;fontSize=14;points=[[0,0.5]];allowArrows=0;verticalAlign=middle;horizontal=1;spacingTop=0;align=right;spacingLeft=0;spacingRight=8;html=1;comic=0;treeFolding=0;treeMoving=0;resizable=0;movableLabel=1;spacing=2;aspect=fixed;fillColor=#000000;metaEdit=1;" vertex="1" parent="8vYfKD7r18sQojz9sVD8-208">
            <mxGeometry y="32.75" width="10" height="15" as="geometry">
              <mxPoint x="-4" y="-8" as="offset" />
            </mxGeometry>
          </mxCell>
        </object>
        <object label="%name%" placeholders="1" name="delta_t" class_name="InputPortBlock" id="8vYfKD7r18sQojz9sVD8-211">
          <mxCell style="triangle;fontSize=14;points=[[0,0.5]];allowArrows=0;verticalAlign=middle;horizontal=1;spacingTop=0;align=right;spacingLeft=0;spacingRight=8;html=1;comic=0;treeFolding=0;treeMoving=0;resizable=0;movableLabel=1;spacing=2;aspect=fixed;fillColor=#000000;metaEdit=1;" vertex="1" parent="8vYfKD7r18sQojz9sVD8-208">
            <mxGeometry y="65" width="10" height="15" as="geometry">
              <mxPoint x="-4" y="-8" as="offset" />
            </mxGeometry>
          </mxCell>
        </object>
        <object label="%name%" placeholders="1" name="OUT1" class_name="OutputPortBlock" id="8vYfKD7r18sQojz9sVD8-212">
          <mxCell style="triangle;fillColor=#ffffff;fontSize=14;points=[[1,0.5]];allowArrows=0;verticalAlign=middle;horizontal=1;spacingTop=0;align=left;spacingLeft=4;spacingRight=0;html=1;comic=0;treeFolding=0;treeMoving=0;movable=1;resizable=0;rotatable=1;deletable=1;editable=1;connectable=1;movableLabel=1;spacing=2;aspect=fixed;metaEdit=1;" vertex="1" parent="8vYfKD7r18sQojz9sVD8-208">
            <mxGeometry x="70" y="32.75" width="10" height="15" as="geometry">
              <mxPoint x="5" y="-7" as="offset" />
            </mxGeometry>
          </mxCell>
        </object>
        <object label="%name%" placeholders="1" name="OUT1" class_name="OutputPortBlock" id="8vYfKD7r18sQojz9sVD8-213">
          <mxCell style="triangle;fillColor=#ffffff;fontSize=14;points=[[0,0.5],[1,0.5]];allowArrows=0;verticalAlign=middle;horizontal=1;spacingTop=0;align=left;spacingLeft=4;spacingRight=0;html=1;comic=0;treeFolding=0;treeMoving=0;movable=1;resizable=0;rotatable=1;deletable=1;editable=1;connectable=1;movableLabel=1;spacing=2;aspect=fixed;metaEdit=1;" vertex="1" parent="8vYfKD7r18sQojz9sVD8-145">
            <mxGeometry x="318.2894736842105" y="434.44444444444446" width="10" height="15" as="geometry">
              <mxPoint x="5" y="-7" as="offset" />
            </mxGeometry>
          </mxCell>
        </object>
        <mxCell id="8vYfKD7r18sQojz9sVD8-214" style="edgeStyle=orthogonalEdgeStyle;rounded=0;orthogonalLoop=1;jettySize=auto;html=1;exitX=1;exitY=0.5;exitDx=0;exitDy=0;entryX=0;entryY=0.5;entryDx=0;entryDy=0;" edge="1" parent="8vYfKD7r18sQojz9sVD8-145" source="8vYfKD7r18sQojz9sVD8-212" target="8vYfKD7r18sQojz9sVD8-213">
          <mxGeometry relative="1" as="geometry" />
        </mxCell>
        <object label="%value%" placeholders="1" value="0" block_name="" class_name="ConstantBlock" id="8vYfKD7r18sQojz9sVD8-215">
          <mxCell style="ellipse;whiteSpace=wrap;html=1;comic=0;fillColor=#ffffff;fontSize=24;align=center;allowArrows=0;connectable=0;container=1;collapsible=0;recursiveResize=1;direction=west;resizable=0;metaEdit=1;" vertex="1" parent="8vYfKD7r18sQojz9sVD8-145">
            <mxGeometry x="-0.0005263157895001314" y="328.05111111111114" width="80" height="80" as="geometry" />
          </mxCell>
        </object>
        <object label="%name%" placeholders="1" name="OUT1" class_name="OutputPortBlock" id="8vYfKD7r18sQojz9sVD8-216">
          <mxCell style="triangle;fillColor=#ffffff;fontSize=14;points=[[1,0.5]];allowArrows=0;verticalAlign=middle;horizontal=1;spacingTop=0;align=left;spacingLeft=4;spacingRight=0;html=1;comic=0;treeFolding=0;treeMoving=0;movable=1;resizable=0;rotatable=1;deletable=1;editable=1;connectable=1;movableLabel=1;spacing=2;aspect=fixed;metaEdit=1;" vertex="1" parent="8vYfKD7r18sQojz9sVD8-215">
            <mxGeometry x="70" y="32.5" width="10" height="15" as="geometry">
              <mxPoint x="6" y="-7" as="offset" />
            </mxGeometry>
          </mxCell>
        </object>
        <mxCell id="8vYfKD7r18sQojz9sVD8-217" style="edgeStyle=orthogonalEdgeStyle;rounded=0;orthogonalLoop=1;jettySize=auto;html=1;exitX=1;exitY=0.5;exitDx=0;exitDy=0;entryX=0;entryY=0.5;entryDx=0;entryDy=0;" edge="1" parent="8vYfKD7r18sQojz9sVD8-145" source="8vYfKD7r18sQojz9sVD8-216" target="8vYfKD7r18sQojz9sVD8-209">
          <mxGeometry relative="1" as="geometry" />
        </mxCell>
        <mxCell id="8vYfKD7r18sQojz9sVD8-218" style="edgeStyle=orthogonalEdgeStyle;rounded=0;orthogonalLoop=1;jettySize=auto;html=1;exitX=1;exitY=0.5;exitDx=0;exitDy=0;entryX=0;entryY=0.5;entryDx=0;entryDy=0;" edge="1" parent="8vYfKD7r18sQojz9sVD8-145" source="8vYfKD7r18sQojz9sVD8-219" target="8vYfKD7r18sQojz9sVD8-211">
          <mxGeometry relative="1" as="geometry" />
        </mxCell>
        <object label="%name%" placeholders="1" name="IN2" class_name="InputPortBlock" id="8vYfKD7r18sQojz9sVD8-219">
          <mxCell style="triangle;fontSize=14;points=[[0,0.5],[1,0.5]];allowArrows=0;verticalAlign=middle;horizontal=1;spacingTop=0;align=right;spacingLeft=0;spacingRight=8;html=1;comic=0;treeFolding=0;treeMoving=0;resizable=0;movableLabel=1;spacing=2;aspect=fixed;fillColor=#000000;metaEdit=1;" vertex="1" parent="8vYfKD7r18sQojz9sVD8-145">
            <mxGeometry x="68.28947368421052" y="426.1111111111111" width="10" height="15" as="geometry">
              <mxPoint x="-4" y="-8" as="offset" />
            </mxGeometry>
          </mxCell>
        </object>
        <object label="%symbol%" placeholders="1" symbol="-" class_name="NegatorBlock" block_name="" id="8vYfKD7r18sQojz9sVD8-228">
          <mxCell style="triangle;whiteSpace=wrap;html=1;comic=0;fontSize=36;align=center;allowArrows=0;recursiveResize=0;resizable=0;fillColor=#FFFFFF;points=[];spacingLeft=-5;container=1;collapsible=0;spacingTop=-6;metaEdit=1;connectable=0;" vertex="1" parent="8vYfKD7r18sQojz9sVD8-145">
            <mxGeometry x="603.2894736842105" y="211.1111111111111" width="60" height="80" as="geometry" />
          </mxCell>
        </object>
        <object label="%name%" placeholders="1" name="OUT1" class_name="OutputPortBlock" id="8vYfKD7r18sQojz9sVD8-229">
          <mxCell style="triangle;fillColor=#ffffff;fontSize=14;points=[[1,0.5]];allowArrows=0;verticalAlign=middle;horizontal=1;spacingTop=0;align=left;spacingLeft=4;spacingRight=0;html=1;comic=0;treeFolding=0;treeMoving=0;movable=1;resizable=0;rotatable=1;deletable=1;editable=1;connectable=1;movableLabel=1;spacing=2;aspect=fixed;metaEdit=1;" vertex="1" parent="8vYfKD7r18sQojz9sVD8-228">
            <mxGeometry x="50" y="32.5" width="10" height="15" as="geometry">
              <mxPoint x="5" y="-7" as="offset" />
            </mxGeometry>
          </mxCell>
        </object>
        <object label="%name%" placeholders="1" name="IN1" class_name="InputPortBlock" id="8vYfKD7r18sQojz9sVD8-230">
          <mxCell style="triangle;fontSize=14;points=[[0,0.5]];allowArrows=0;verticalAlign=middle;horizontal=1;spacingTop=0;align=right;spacingLeft=0;spacingRight=8;html=1;comic=0;treeFolding=0;treeMoving=0;resizable=0;movableLabel=1;spacing=2;aspect=fixed;fillColor=#000000;metaEdit=1;" vertex="1" parent="8vYfKD7r18sQojz9sVD8-228">
            <mxGeometry y="32.5" width="10" height="15" as="geometry">
              <mxPoint x="-5" y="-7" as="offset" />
            </mxGeometry>
          </mxCell>
        </object>
        <mxCell id="8vYfKD7r18sQojz9sVD8-231" style="edgeStyle=orthogonalEdgeStyle;rounded=0;orthogonalLoop=1;jettySize=auto;html=1;exitX=1;exitY=0.5;exitDx=0;exitDy=0;entryX=0;entryY=0.5;entryDx=0;entryDy=0;" edge="1" parent="8vYfKD7r18sQojz9sVD8-145" source="8vYfKD7r18sQojz9sVD8-179" target="8vYfKD7r18sQojz9sVD8-230">
          <mxGeometry relative="1" as="geometry" />
        </mxCell>
        <mxCell id="8vYfKD7r18sQojz9sVD8-232" style="edgeStyle=orthogonalEdgeStyle;rounded=0;orthogonalLoop=1;jettySize=auto;html=1;exitX=1;exitY=0.5;exitDx=0;exitDy=0;entryX=0;entryY=0.5;entryDx=0;entryDy=0;" edge="1" parent="8vYfKD7r18sQojz9sVD8-145" source="8vYfKD7r18sQojz9sVD8-229" target="8vYfKD7r18sQojz9sVD8-186">
          <mxGeometry relative="1" as="geometry">
            <Array as="points">
              <mxPoint x="663" y="281" />
            </Array>
          </mxGeometry>
        </mxCell>
        <mxCell id="8vYfKD7r18sQojz9sVD8-233" style="edgeStyle=orthogonalEdgeStyle;rounded=0;orthogonalLoop=1;jettySize=auto;html=1;exitX=1;exitY=0.5;exitDx=0;exitDy=0;entryX=0;entryY=0.5;entryDx=0;entryDy=0;" edge="1" parent="8vYfKD7r18sQojz9sVD8-145" source="8vYfKD7r18sQojz9sVD8-203" target="8vYfKD7r18sQojz9sVD8-210">
          <mxGeometry relative="1" as="geometry">
            <Array as="points">
              <mxPoint x="848" y="180" />
              <mxPoint x="848" y="466" />
              <mxPoint x="108" y="466" />
              <mxPoint x="108" y="401" />
            </Array>
          </mxGeometry>
        </mxCell>
        <mxCell id="8vYfKD7r18sQojz9sVD8-271" style="edgeStyle=orthogonalEdgeStyle;rounded=0;orthogonalLoop=1;jettySize=auto;html=1;exitX=1;exitY=0.5;exitDx=0;exitDy=0;entryX=0;entryY=0.5;entryDx=0;entryDy=0;" edge="1" parent="8vYfKD7r18sQojz9sVD8-145" source="8vYfKD7r18sQojz9sVD8-212" target="8vYfKD7r18sQojz9sVD8-176">
          <mxGeometry relative="1" as="geometry" />
        </mxCell>
        <mxCell id="8vYfKD7r18sQojz9sVD8-272" style="edgeStyle=orthogonalEdgeStyle;rounded=0;orthogonalLoop=1;jettySize=auto;html=1;exitX=1;exitY=0.5;exitDx=0;exitDy=0;entryX=0;entryY=0.5;entryDx=0;entryDy=0;" edge="1" parent="8vYfKD7r18sQojz9sVD8-145" source="8vYfKD7r18sQojz9sVD8-212" target="8vYfKD7r18sQojz9sVD8-177">
          <mxGeometry relative="1" as="geometry" />
        </mxCell>
        <object label="" placeholders="1" class_name="root" id="8vYfKD7r18sQojz9sVD8-234">
          <mxCell style="rounded=0;whiteSpace=wrap;html=1;fillColor=#fff2cc;strokeColor=#d6b656;container=0;connectable=0;allowArrows=0;treeFolding=0;moveCells=0;treeMoving=0;comic=0;rotatable=0;expand=1;autosize=1;resizeWidth=1;resizeHeight=1;metaEdit=1;" vertex="1" parent="1">
            <mxGeometry x="620" y="90" width="760" height="540" as="geometry">
              <mxRectangle x="40" y="400" width="50" height="40" as="alternateBounds" />
            </mxGeometry>
          </mxCell>
        </object>
        <object label="%class_name%" placeholders="1" id="8vYfKD7r18sQojz9sVD8-235">
          <mxCell style="rounded=0;whiteSpace=wrap;html=1;fillColor=#ffffff;fontSize=18;connectable=0;allowArrows=0;rotatable=0;cloneable=0;deletable=0;" vertex="1" parent="8vYfKD7r18sQojz9sVD8-234">
            <mxGeometry x="10" y="20" width="740" height="40" as="geometry" />
          </mxCell>
        </object>
        <mxCell id="8vYfKD7r18sQojz9sVD8-236" value="" style="rounded=0;whiteSpace=wrap;html=1;fillColor=#ffffff;connectable=0;allowArrows=0;container=1;collapsible=0;portConstraintRotation=0;rotatable=0;cloneable=0;deletable=0;recursiveResize=0;" vertex="1" parent="8vYfKD7r18sQojz9sVD8-234">
          <mxGeometry x="10" y="70" width="740" height="460" as="geometry">
            <mxRectangle x="10" y="70" width="50" height="40" as="alternateBounds" />
          </mxGeometry>
        </mxCell>
        <object label="%value%" placeholders="1" block_name="lookup" class_name="LookupBlock" symbol="lookup" id="8vYfKD7r18sQojz9sVD8-237">
          <mxCell style="ellipse;whiteSpace=wrap;html=1;comic=0;fillColor=#ffffff;fontSize=24;align=center;allowArrows=0;connectable=0;container=1;collapsible=0;recursiveResize=1;direction=west;resizable=0;metaEdit=1;" vertex="1" parent="8vYfKD7r18sQojz9sVD8-236">
            <mxGeometry x="9" y="234" width="80" height="80" as="geometry" />
          </mxCell>
        </object>
        <object label="%name%" placeholders="1" name="OUT1" class_name="OutputPortBlock" id="8vYfKD7r18sQojz9sVD8-238">
          <mxCell style="triangle;fillColor=#ffffff;fontSize=14;points=[[1,0.5]];allowArrows=0;verticalAlign=middle;horizontal=1;spacingTop=0;align=left;spacingLeft=4;spacingRight=0;html=1;comic=0;treeFolding=0;treeMoving=0;movable=1;resizable=0;rotatable=1;deletable=1;editable=1;connectable=1;movableLabel=1;spacing=2;aspect=fixed;metaEdit=1;" vertex="1" parent="8vYfKD7r18sQojz9sVD8-237">
            <mxGeometry x="70" y="32.5" width="10" height="15" as="geometry">
              <mxPoint x="6" y="-7" as="offset" />
            </mxGeometry>
          </mxCell>
        </object>
        <object label="%symbol%" placeholders="1" symbol="&amp;sum;" class_name="AdderBlock" block_name="sum" id="8vYfKD7r18sQojz9sVD8-239">
          <mxCell style="whiteSpace=wrap;html=1;aspect=fixed;comic=0;fillColor=#FFFFFF;fontSize=36;align=center;resizable=0;container=1;collapsible=0;points=[];allowArrows=0;spacingTop=-6;metaEdit=1;connectable=0;" vertex="1" parent="8vYfKD7r18sQojz9sVD8-236">
            <mxGeometry x="170" y="220" width="80" height="80" as="geometry" />
          </mxCell>
        </object>
        <object label="%name%" placeholders="1" name="OUT1" class_name="OutputPortBlock" id="8vYfKD7r18sQojz9sVD8-240">
          <mxCell style="triangle;fillColor=#ffffff;fontSize=14;points=[[1,0.5]];allowArrows=0;verticalAlign=middle;horizontal=1;spacingTop=0;align=left;spacingLeft=4;spacingRight=0;html=1;comic=0;treeFolding=0;treeMoving=0;movable=1;resizable=0;rotatable=1;deletable=1;editable=1;connectable=1;movableLabel=1;spacing=2;aspect=fixed;metaEdit=1;" vertex="1" parent="8vYfKD7r18sQojz9sVD8-239">
            <mxGeometry x="70" y="32.5" width="10" height="15" as="geometry">
              <mxPoint x="5" y="-7" as="offset" />
            </mxGeometry>
          </mxCell>
        </object>
        <object label="%name%" placeholders="1" name="IN1" class_name="InputPortBlock" id="8vYfKD7r18sQojz9sVD8-241">
          <mxCell style="triangle;fontSize=14;points=[[0,0.5]];allowArrows=0;verticalAlign=middle;horizontal=1;spacingTop=0;align=right;spacingLeft=0;spacingRight=8;html=1;comic=0;treeFolding=0;treeMoving=0;resizable=0;movableLabel=1;spacing=2;aspect=fixed;fillColor=#000000;metaEdit=1;" vertex="1" parent="8vYfKD7r18sQojz9sVD8-239">
            <mxGeometry y="17.5" width="10" height="15" as="geometry">
              <mxPoint x="-4" y="-8" as="offset" />
            </mxGeometry>
          </mxCell>
        </object>
        <object label="%name%" placeholders="1" name="IN2" class_name="InputPortBlock" id="8vYfKD7r18sQojz9sVD8-242">
          <mxCell style="triangle;fontSize=14;points=[[0,0.5]];allowArrows=0;verticalAlign=middle;horizontal=1;spacingTop=0;align=right;spacingLeft=0;spacingRight=8;html=1;comic=0;treeFolding=0;treeMoving=0;resizable=0;movableLabel=1;spacing=2;aspect=fixed;fillColor=#000000;metaEdit=1;" vertex="1" parent="8vYfKD7r18sQojz9sVD8-239">
            <mxGeometry y="47.5" width="10" height="15" as="geometry">
              <mxPoint x="-4" y="-8" as="offset" />
            </mxGeometry>
          </mxCell>
        </object>
        <mxCell id="8vYfKD7r18sQojz9sVD8-243" style="edgeStyle=orthogonalEdgeStyle;rounded=0;orthogonalLoop=1;jettySize=auto;html=1;exitX=1;exitY=0.5;exitDx=0;exitDy=0;entryX=0;entryY=0.5;entryDx=0;entryDy=0;" edge="1" parent="8vYfKD7r18sQojz9sVD8-236" source="8vYfKD7r18sQojz9sVD8-238" target="8vYfKD7r18sQojz9sVD8-242">
          <mxGeometry relative="1" as="geometry" />
        </mxCell>
        <object label="%symbol%" placeholders="1" symbol="-" class_name="NegatorBlock" block_name="neg" id="8vYfKD7r18sQojz9sVD8-244">
          <mxCell style="triangle;whiteSpace=wrap;html=1;comic=0;fontSize=36;align=center;allowArrows=0;recursiveResize=0;resizable=0;fillColor=#FFFFFF;points=[];spacingLeft=-5;container=1;collapsible=0;spacingTop=-6;metaEdit=1;connectable=0;" vertex="1" parent="8vYfKD7r18sQojz9sVD8-236">
            <mxGeometry x="630" y="220" width="60" height="80" as="geometry" />
          </mxCell>
        </object>
        <object label="%name%" placeholders="1" name="OUT1" class_name="OutputPortBlock" id="8vYfKD7r18sQojz9sVD8-245">
          <mxCell style="triangle;fillColor=#ffffff;fontSize=14;points=[[1,0.5]];allowArrows=0;verticalAlign=middle;horizontal=1;spacingTop=0;align=left;spacingLeft=4;spacingRight=0;html=1;comic=0;treeFolding=0;treeMoving=0;movable=1;resizable=0;rotatable=1;deletable=1;editable=1;connectable=1;movableLabel=1;spacing=2;aspect=fixed;metaEdit=1;" vertex="1" parent="8vYfKD7r18sQojz9sVD8-244">
            <mxGeometry x="50" y="32.5" width="10" height="15" as="geometry">
              <mxPoint x="5" y="-7" as="offset" />
            </mxGeometry>
          </mxCell>
        </object>
        <object label="%name%" placeholders="1" name="IN1" class_name="InputPortBlock" id="8vYfKD7r18sQojz9sVD8-246">
          <mxCell style="triangle;fontSize=14;points=[[0,0.5]];allowArrows=0;verticalAlign=middle;horizontal=1;spacingTop=0;align=right;spacingLeft=0;spacingRight=8;html=1;comic=0;treeFolding=0;treeMoving=0;resizable=0;movableLabel=1;spacing=2;aspect=fixed;fillColor=#000000;metaEdit=1;" vertex="1" parent="8vYfKD7r18sQojz9sVD8-244">
            <mxGeometry y="32.5" width="10" height="15" as="geometry">
              <mxPoint x="-5" y="-7" as="offset" />
            </mxGeometry>
          </mxCell>
        </object>
        <object label="%symbol%" placeholders="1" symbol="plant" class_name="PlantBlock" block_name="plant" id="8vYfKD7r18sQojz9sVD8-247">
          <mxCell style="whiteSpace=wrap;html=1;aspect=fixed;comic=0;fillColor=#FFFFFF;fontSize=36;align=center;resizable=0;container=1;collapsible=0;points=[];allowArrows=0;spacingTop=-6;metaEdit=1;connectable=0;" vertex="1" parent="8vYfKD7r18sQojz9sVD8-236">
            <mxGeometry x="480" y="220" width="80" height="80" as="geometry" />
          </mxCell>
        </object>
        <object label="%name%" placeholders="1" name="OUT1" class_name="OutputPortBlock" id="8vYfKD7r18sQojz9sVD8-248">
          <mxCell style="triangle;fillColor=#ffffff;fontSize=14;points=[[1,0.5]];allowArrows=0;verticalAlign=middle;horizontal=1;spacingTop=0;align=left;spacingLeft=4;spacingRight=0;html=1;comic=0;treeFolding=0;treeMoving=0;movable=1;resizable=0;rotatable=1;deletable=1;editable=1;connectable=1;movableLabel=1;spacing=2;aspect=fixed;metaEdit=1;" vertex="1" parent="8vYfKD7r18sQojz9sVD8-247">
            <mxGeometry x="70" y="32.5" width="10" height="15" as="geometry">
              <mxPoint x="5" y="-7" as="offset" />
            </mxGeometry>
          </mxCell>
        </object>
        <object label="%name%" placeholders="1" name="IN1" class_name="InputPortBlock" id="8vYfKD7r18sQojz9sVD8-249">
          <mxCell style="triangle;fontSize=14;points=[[0,0.5]];allowArrows=0;verticalAlign=middle;horizontal=1;spacingTop=0;align=right;spacingLeft=0;spacingRight=8;html=1;comic=0;treeFolding=0;treeMoving=0;resizable=0;movableLabel=1;spacing=2;aspect=fixed;fillColor=#000000;metaEdit=1;" vertex="1" parent="8vYfKD7r18sQojz9sVD8-247">
            <mxGeometry y="17.5" width="10" height="15" as="geometry">
              <mxPoint x="-4" y="-8" as="offset" />
            </mxGeometry>
          </mxCell>
        </object>
        <object label="%name%" placeholders="1" name="IN2" class_name="InputPortBlock" id="8vYfKD7r18sQojz9sVD8-250">
          <mxCell style="triangle;fontSize=14;points=[[0,0.5]];allowArrows=0;verticalAlign=middle;horizontal=1;spacingTop=0;align=right;spacingLeft=0;spacingRight=8;html=1;comic=0;treeFolding=0;treeMoving=0;resizable=0;movableLabel=1;spacing=2;aspect=fixed;fillColor=#000000;metaEdit=1;" vertex="1" parent="8vYfKD7r18sQojz9sVD8-247">
            <mxGeometry y="47.5" width="10" height="15" as="geometry">
              <mxPoint x="-4" y="-8" as="offset" />
            </mxGeometry>
          </mxCell>
        </object>
        <mxCell id="8vYfKD7r18sQojz9sVD8-251" style="edgeStyle=orthogonalEdgeStyle;rounded=0;orthogonalLoop=1;jettySize=auto;html=1;exitX=1;exitY=0.5;exitDx=0;exitDy=0;entryX=0;entryY=0.5;entryDx=0;entryDy=0;" edge="1" parent="8vYfKD7r18sQojz9sVD8-236" source="8vYfKD7r18sQojz9sVD8-248" target="8vYfKD7r18sQojz9sVD8-246">
          <mxGeometry relative="1" as="geometry" />
        </mxCell>
        <object label="%symbol%" placeholders="1" symbol="ctrl" class_name="PIDBlock" block_name="controller" id="8vYfKD7r18sQojz9sVD8-252">
          <mxCell style="whiteSpace=wrap;html=1;aspect=fixed;comic=0;fillColor=#FFFFFF;fontSize=36;align=center;resizable=0;container=1;collapsible=0;points=[];allowArrows=0;spacingTop=-6;metaEdit=1;connectable=0;" vertex="1" parent="8vYfKD7r18sQojz9sVD8-236">
            <mxGeometry x="319" y="220" width="80" height="80" as="geometry" />
          </mxCell>
        </object>
        <object label="%name%" placeholders="1" name="OUT1" class_name="OutputPortBlock" id="8vYfKD7r18sQojz9sVD8-253">
          <mxCell style="triangle;fillColor=#ffffff;fontSize=14;points=[[1,0.5]];allowArrows=0;verticalAlign=middle;horizontal=1;spacingTop=0;align=left;spacingLeft=4;spacingRight=0;html=1;comic=0;treeFolding=0;treeMoving=0;movable=1;resizable=0;rotatable=1;deletable=1;editable=1;connectable=1;movableLabel=1;spacing=2;aspect=fixed;metaEdit=1;" vertex="1" parent="8vYfKD7r18sQojz9sVD8-252">
            <mxGeometry x="70" y="32.5" width="10" height="15" as="geometry">
              <mxPoint x="5" y="-7" as="offset" />
            </mxGeometry>
          </mxCell>
        </object>
        <object label="%name%" placeholders="1" name="IN1" class_name="InputPortBlock" id="8vYfKD7r18sQojz9sVD8-254">
          <mxCell style="triangle;fontSize=14;points=[[0,0.5]];allowArrows=0;verticalAlign=middle;horizontal=1;spacingTop=0;align=right;spacingLeft=0;spacingRight=8;html=1;comic=0;treeFolding=0;treeMoving=0;resizable=0;movableLabel=1;spacing=2;aspect=fixed;fillColor=#000000;metaEdit=1;" vertex="1" parent="8vYfKD7r18sQojz9sVD8-252">
            <mxGeometry y="17.5" width="10" height="15" as="geometry">
              <mxPoint x="-4" y="-8" as="offset" />
            </mxGeometry>
          </mxCell>
        </object>
        <object label="%name%" placeholders="1" name="IN2" class_name="InputPortBlock" id="8vYfKD7r18sQojz9sVD8-255">
          <mxCell style="triangle;fontSize=14;points=[[0,0.5]];allowArrows=0;verticalAlign=middle;horizontal=1;spacingTop=0;align=right;spacingLeft=0;spacingRight=8;html=1;comic=0;treeFolding=0;treeMoving=0;resizable=0;movableLabel=1;spacing=2;aspect=fixed;fillColor=#000000;metaEdit=1;" vertex="1" parent="8vYfKD7r18sQojz9sVD8-252">
            <mxGeometry y="47.5" width="10" height="15" as="geometry">
              <mxPoint x="-4" y="-8" as="offset" />
            </mxGeometry>
          </mxCell>
        </object>
        <mxCell id="8vYfKD7r18sQojz9sVD8-256" style="edgeStyle=orthogonalEdgeStyle;rounded=0;orthogonalLoop=1;jettySize=auto;html=1;exitX=1;exitY=0.5;exitDx=0;exitDy=0;entryX=0;entryY=0.5;entryDx=0;entryDy=0;" edge="1" parent="8vYfKD7r18sQojz9sVD8-236" source="8vYfKD7r18sQojz9sVD8-253" target="8vYfKD7r18sQojz9sVD8-249">
          <mxGeometry relative="1" as="geometry" />
        </mxCell>
        <mxCell id="8vYfKD7r18sQojz9sVD8-257" style="edgeStyle=orthogonalEdgeStyle;rounded=0;orthogonalLoop=1;jettySize=auto;html=1;exitX=1;exitY=0.5;exitDx=0;exitDy=0;" edge="1" parent="8vYfKD7r18sQojz9sVD8-236" source="8vYfKD7r18sQojz9sVD8-240" target="8vYfKD7r18sQojz9sVD8-254">
          <mxGeometry relative="1" as="geometry">
            <Array as="points">
              <mxPoint x="290" y="260" />
              <mxPoint x="290" y="245" />
            </Array>
          </mxGeometry>
        </mxCell>
        <mxCell id="8vYfKD7r18sQojz9sVD8-267" style="edgeStyle=orthogonalEdgeStyle;rounded=0;orthogonalLoop=1;jettySize=auto;html=1;exitX=1;exitY=0.5;exitDx=0;exitDy=0;entryX=0;entryY=0.5;entryDx=0;entryDy=0;" edge="1" parent="8vYfKD7r18sQojz9sVD8-236" source="8vYfKD7r18sQojz9sVD8-269" target="8vYfKD7r18sQojz9sVD8-255">
          <mxGeometry relative="1" as="geometry">
            <Array as="points">
              <mxPoint x="290" y="353" />
              <mxPoint x="290" y="275" />
            </Array>
          </mxGeometry>
        </mxCell>
        <mxCell id="8vYfKD7r18sQojz9sVD8-268" style="edgeStyle=orthogonalEdgeStyle;rounded=0;orthogonalLoop=1;jettySize=auto;html=1;exitX=1;exitY=0.5;exitDx=0;exitDy=0;entryX=0;entryY=0.5;entryDx=0;entryDy=0;" edge="1" parent="8vYfKD7r18sQojz9sVD8-236" source="8vYfKD7r18sQojz9sVD8-269" target="8vYfKD7r18sQojz9sVD8-250">
          <mxGeometry relative="1" as="geometry">
            <Array as="points">
              <mxPoint x="440" y="353" />
              <mxPoint x="440" y="275" />
            </Array>
          </mxGeometry>
        </mxCell>
        <object label="%name%" placeholders="1" name="delta_t" class_name="InputPortBlock" id="8vYfKD7r18sQojz9sVD8-269">
          <mxCell style="triangle;fontSize=14;points=[[0,0.5],[1,0.5]];allowArrows=0;verticalAlign=middle;horizontal=1;spacingTop=0;align=right;spacingLeft=0;spacingRight=8;html=1;comic=0;treeFolding=0;treeMoving=0;resizable=0;movableLabel=1;spacing=2;aspect=fixed;fillColor=#000000;metaEdit=1;" vertex="1" parent="8vYfKD7r18sQojz9sVD8-236">
            <mxGeometry x="230" y="345" width="10" height="15" as="geometry">
              <mxPoint x="-4" y="-8" as="offset" />
            </mxGeometry>
          </mxCell>
        </object>
        <mxCell id="8vYfKD7r18sQojz9sVD8-270" style="edgeStyle=orthogonalEdgeStyle;rounded=0;orthogonalLoop=1;jettySize=auto;html=1;exitX=1;exitY=0.5;exitDx=0;exitDy=0;entryX=0;entryY=0.5;entryDx=0;entryDy=0;" edge="1" parent="8vYfKD7r18sQojz9sVD8-236" source="8vYfKD7r18sQojz9sVD8-245" target="8vYfKD7r18sQojz9sVD8-241">
          <mxGeometry relative="1" as="geometry">
            <Array as="points">
              <mxPoint x="730" y="260" />
              <mxPoint x="730" y="190" />
              <mxPoint x="130" y="190" />
              <mxPoint x="130" y="245" />
            </Array>
          </mxGeometry>
        </mxCell>
      </root>
    </mxGraphModel>
  </diagram>
</mxfile>
